<svg height="346.22601" width="373.86584" xmlns="http://www.w3.org/2000/svg" xmlns:xlink="http://www.w3.org/1999/xlink"><marker id="a" markerHeight="6.4000001" markerUnits="strokeWidth" markerWidth="8" orient="auto" refX="7.5999999" refY="4.0999999"><path d="m.8 1.6 6.8 2.5-6.8 2.3"/></marker><g stroke-width="3" transform="translate(-98.735656 -105.494)"><path d="m253.5897695 118.94399988v111.94399988 75.94399988" fill="none" marker-mid="url(#a)" stroke="#000"/><g fill="#969696" fill-opacity=".85" stroke="#969696"><path d="m272.16676 368.11556-64.27876 76.60444h-70l64.27876-76.60444z"/><path d="m353.58977 306.832-44.99513 53.62311h-100l44.99513-53.62311z"/><path d="m433.58977 306.832-64.27876 76.60444h-70l64.27876-76.60444z"/><path d="m362.88313 391.09689-44.99513 53.62311h-100l44.99513-53.62311z"/><path d="m272.16676 180.22756-64.27876 76.60444h-70l64.27876-76.60444z"/><path d="m353.58977 118.944-44.99513 53.62311h-100l44.99513-53.62311z"/><path d="m433.58977 118.944-64.27876 76.60444h-70l64.27876-76.60444z"/><path d="m362.88313 203.20889-44.99513 53.62311h-100l44.99513-53.62311z"/></g><g fill="none"><g stroke="#e23d28"><path d="m137.88799976 444.7199994 115.70176974-137.88799976"/><path d="m253.5897695 306.83199964h180"/><path d="m433.5897695 306.83199964-115.70176974 137.88799976"/><path d="m317.88799976 444.7199994h-180"/><path d="m137.88799976 256.83199964 115.70176974-137.88799976"/><path d="m253.5897695 118.94399988h180"/><path d="m433.5897695 118.94399988-115.70176974 137.88799976"/><path d="m317.88799976 256.83199964h-180"/></g><g marker-mid="url(#a)" stroke="#000"><path d="m433.5897695 306.83199964v-111.94399988-75.94399988"/><path d="m317.88799976 444.7199994v-111.94399988-75.94399988"/><path d="m137.88799976 256.83199964v111.94399988 75.94399988"/></g></g></g><circle cx="39.152344" cy="339.22601" fill="#fff" r="6" stroke="#000" stroke-width="2"/><text style="fill:#969696;font-family:Arial, Helvetica;font-size:20;font-weight:bold;stroke:#969696;stroke-linejoin:round;stroke-width:2;text-anchor:middle" transform="matrix(.64278761 -.76604444 1.3054073 0 0 0)" x="-392.82809" y="278.9303">A.G2</text><text fill="#fff" font-family="Arial, Helvetica" font-size="20" font-weight="bold" text-anchor="middle" transform="matrix(.64278761 -.76604444 1.3054073 0 0 0)" x="-392.82809" y="278.9303">A.G2</text><circle cx="154.85411" cy="201.338" fill="#fff" r="6" stroke="#000" stroke-width="2"/><text style="fill:#969696;font-family:Arial, Helvetica;font-size:20;font-weight:bold;stroke:#969696;stroke-linejoin:round;stroke-width:2;text-anchor:middle" transform="matrix(1 0 -.83909963 1 0 0)" x="373.5824" y="233.47044">B.G2</text><text fill="#fff" font-family="Arial, Helvetica" font-size="20" font-weight="bold" text-anchor="middle" transform="matrix(1 0 -.83909963 1 0 0)" x="373.5824" y="233.47044">B.G2</text><circle cx="334.85413" cy="201.338" fill="#fff" r="6" stroke="#000" stroke-width="2"/><text style="fill:#969696;font-family:Arial, Helvetica;font-size:20;font-weight:bold;stroke:#969696;stroke-linejoin:round;stroke-width:2;text-anchor:middle" transform="matrix(.64278761 -.76604444 1.3054073 0 0 0)" x="-312.82809" y="363.19519">C.G1</text><text fill="#fff" font-family="Arial, Helvetica" font-size="20" font-weight="bold" text-anchor="middle" transform="matrix(.64278761 -.76604444 1.3054073 0 0 0)" x="-312.82809" y="363.19519">C.G1</text><circle cx="219.15234" cy="339.22601" fill="#fff" r="6" stroke="#000" stroke-width="2"/><text style="fill:#969696;font-family:Arial, Helvetica;font-size:20;font-weight:bold;stroke:#969696;stroke-linejoin:round;stroke-width:2;text-anchor:middle" transform="matrix(1 0 -.83909963 1 0 0)" x="453.5824" y="317.73532">D.G1</text><text fill="#fff" font-family="Arial, Helvetica" font-size="20" font-weight="bold" text-anchor="middle" transform="matrix(1 0 -.83909963 1 0 0)" x="453.5824" y="317.73532">D.G1</text><circle cx="39.152344" cy="151.338" fill="#fff" r="6" stroke="#000" stroke-width="2"/><text style="fill:#969696;font-family:Arial, Helvetica;font-size:20;font-weight:bold;stroke:#969696;stroke-linejoin:round;stroke-width:2;text-anchor:middle" transform="matrix(.64278761 -.76604444 1.3054073 0 0 0)" x="-147.55774" y="158.15822">A.G1</text><text fill="#fff" font-family="Arial, Helvetica" font-size="20" font-weight="bold" text-anchor="middle" transform="matrix(.64278761 -.76604444 1.3054073 0 0 0)" x="-147.55774" y="158.15822">A.G1</text><circle cx="154.85411" cy="13.450001" fill="#fff" r="6" stroke="#000" stroke-width="2"/><text style="fill:#969696;font-family:Arial, Helvetica;font-size:20;font-weight:bold;stroke:#969696;stroke-linejoin:round;stroke-width:2;text-anchor:middle" transform="matrix(1 0 -.83909963 1 0 0)" x="215.92564" y="45.582439">B.G1</text><text fill="#fff" font-family="Arial, Helvetica" font-size="20" font-weight="bold" text-anchor="middle" transform="matrix(1 0 -.83909963 1 0 0)" x="215.92564" y="45.582439">B.G1</text><circle cx="334.85413" cy="13.450001" fill="#fff" r="6" stroke="#000" stroke-width="2"/><text style="fill:#969696;font-family:Arial, Helvetica;font-size:20;font-weight:bold;stroke:#969696;stroke-linejoin:round;stroke-width:2;text-anchor:middle" transform="matrix(.64278761 -.76604444 1.3054073 0 0 0)" x="-67.557724" y="242.42311">C.G2</text><text fill="#fff" font-family="Arial, Helvetica" font-size="20" font-weight="bold" text-anchor="middle" transform="matrix(.64278761 -.76604444 1.3054073 0 0 0)" x="-67.557724" y="242.42311">C.G2</text><circle cx="219.15234" cy="151.338" fill="#fff" r="6" stroke="#000" stroke-width="2"/><g font-family="Arial, Helvetica" font-weight="bold"><text style="fill:#969696;font-size:20;stroke:#969696;stroke-linejoin:round;stroke-width:2;text-anchor:middle" transform="matrix(1 0 -.83909963 1 0 0)" x="295.92563" y="129.84734">D.G2</text><text fill="#fff" font-size="20" text-anchor="middle" transform="matrix(1 0 -.83909963 1 0 0)" x="295.92563" y="129.84734">D.G2</text><g font-size="24"><g text-anchor="end"><text stroke="#fff" stroke-linejoin="round" stroke-width="2" x="19.152344" y="156.138">5'</text><text x="19.152344" y="156.138">5'</text><text stroke="#fff" stroke-linejoin="round" stroke-width="2" x="19.152344" y="344.026">3'</text><text x="19.152344" y="344.026">3'</text><text stroke="#fff" stroke-linejoin="round" stroke-width="2" x="134.85411" y="18.25">5'</text><text x="134.85411" y="18.25">5'</text><text stroke="#fff" stroke-linejoin="round" stroke-width="2" x="134.85411" y="206.138">3'</text><text x="134.85411" y="206.138">3'</text></g><text stroke="#fff" stroke-linejoin="round" stroke-width="2" x="354.85413" y="206.138">5'</text><text x="354.85413" y="206.138">5'</text><text stroke="#fff" stroke-linejoin="round" stroke-width="2" x="354.85413" y="18.25">3'</text><text x="354.85413" y="18.25">3'</text><text stroke="#fff" stroke-linejoin="round" stroke-width="2" x="239.15234" y="344.026">5'</text><text x="239.15234" y="344.026">5'</text><text stroke="#fff" stroke-linejoin="round" stroke-width="2" x="239.15234" y="156.138">3'</text><text x="239.15234" y="156.138">3'</text></g></g></svg>