<svg height="345.73383" width="374.01819" xmlns="http://www.w3.org/2000/svg" xmlns:xlink="http://www.w3.org/1999/xlink"><marker id="a" markerHeight="6.4000001" markerUnits="strokeWidth" markerWidth="8" orient="auto" refX="7.5999999" refY="4.0999999"><path d="m.8 1.6 6.8 2.5-6.8 2.3"/></marker><g stroke-width="3" transform="translate(-98.384094 -105.98619)"><path d="m253.58977 118.944v173.04219 14.84581" fill="none" marker-mid="url(#a)" stroke="#000"/><g fill="#969696" fill-opacity=".85" stroke="#969696"><path d="m272.16676 368.11556-64.27876 76.60444h-70l64.27876-76.60444z"/><path d="m353.58977 306.832-44.99513 53.62311h-100l44.99513-53.62311z"/><path d="m433.58977 306.832-64.27876 76.60444h-70l64.27876-76.60444z"/><path d="m362.88313 391.09689-44.99513 53.62311h-100l44.99513-53.62311z"/><path d="m272.16676 180.22756-64.27876 76.60444h-70l64.27876-76.60444z"/><path d="m353.58977 118.944-44.99513 53.62311h-100l44.99513-53.62311z"/><path d="m433.58977 118.944-64.27876 76.60444h-70l64.27876-76.60444z"/><path d="m362.88313 203.20889-44.99513 53.62311h-100l44.99513-53.62311z"/></g><g fill="none"><g stroke="#e23d28"><path d="m137.88799976 444.7199994 115.70176974-137.88799976"/><path d="m253.5897695 306.83199964h180"/><path d="m433.5897695 306.83199964-115.70176974 137.88799976"/><path d="m317.88799976 444.7199994h-180"/><path d="m137.88799976 256.83199964 115.70176974-137.88799976"/><path d="m253.5897695 118.94399988h180"/><path d="m433.5897695 118.94399988-115.70176974 137.88799976"/><path d="m317.88799976 256.83199964h-180"/></g><g marker-mid="url(#a)" stroke="#000"><path d="m137.88799976 444.7199994v-111.94399988-75.94399988"/><path d="m433.5897695 306.83199964v-111.94399988-75.94399988"/><path d="m317.88799976 256.83199964v111.94399988 75.94399988"/></g></g></g><circle cx="39.503906" cy="338.73383" fill="#fff" r="6" stroke="#000" stroke-width="2"/><text style="fill:#969696;font-family:Arial, Helvetica;font-size:20;font-weight:bold;stroke:#969696;stroke-linejoin:round;stroke-width:2;text-anchor:middle" transform="matrix(.64278761 -.76604444 1.3054073 0 0 0)" x="-392.18561" y="278.88324">A.G1</text><text fill="#fff" font-family="Arial, Helvetica" font-size="20" font-weight="bold" text-anchor="middle" transform="matrix(.64278761 -.76604444 1.3054073 0 0 0)" x="-392.18561" y="278.88324">A.G1</text><circle cx="155.20567" cy="200.84581" fill="#fff" r="6" stroke="#000" stroke-width="2"/><text style="fill:#969696;font-family:Arial, Helvetica;font-size:20;font-weight:bold;stroke:#969696;stroke-linejoin:round;stroke-width:2;text-anchor:middle" transform="matrix(1 0 -.83909963 1 0 0)" x="373.52097" y="232.97826">B.G2</text><text fill="#fff" font-family="Arial, Helvetica" font-size="20" font-weight="bold" text-anchor="middle" transform="matrix(1 0 -.83909963 1 0 0)" x="373.52097" y="232.97826">B.G2</text><circle cx="335.20569" cy="200.84581" fill="#fff" r="6" stroke="#000" stroke-width="2"/><text style="fill:#969696;font-family:Arial, Helvetica;font-size:20;font-weight:bold;stroke:#969696;stroke-linejoin:round;stroke-width:2;text-anchor:middle" transform="matrix(.64278761 -.76604444 1.3054073 0 0 0)" x="-312.18558" y="363.14813">C.G1</text><text fill="#fff" font-family="Arial, Helvetica" font-size="20" font-weight="bold" text-anchor="middle" transform="matrix(.64278761 -.76604444 1.3054073 0 0 0)" x="-312.18558" y="363.14813">C.G1</text><circle cx="219.50391" cy="338.73383" fill="#fff" r="6" stroke="#000" stroke-width="2"/><text style="fill:#969696;font-family:Arial, Helvetica;font-size:20;font-weight:bold;stroke:#969696;stroke-linejoin:round;stroke-width:2;text-anchor:middle" transform="matrix(1 0 -.83909963 1 0 0)" x="453.52097" y="317.24313">D.G2</text><text fill="#fff" font-family="Arial, Helvetica" font-size="20" font-weight="bold" text-anchor="middle" transform="matrix(1 0 -.83909963 1 0 0)" x="453.52097" y="317.24313">D.G2</text><circle cx="39.503906" cy="150.84581" fill="#fff" r="6" stroke="#000" stroke-width="2"/><text style="fill:#969696;font-family:Arial, Helvetica;font-size:20;font-weight:bold;stroke:#969696;stroke-linejoin:round;stroke-width:2;text-anchor:middle" transform="matrix(.64278761 -.76604444 1.3054073 0 0 0)" x="-146.91522" y="158.11116">A.G2</text><text fill="#fff" font-family="Arial, Helvetica" font-size="20" font-weight="bold" text-anchor="middle" transform="matrix(.64278761 -.76604444 1.3054073 0 0 0)" x="-146.91522" y="158.11116">A.G2</text><circle cx="155.20567" cy="12.957813" fill="#fff" r="6" stroke="#000" stroke-width="2"/><text style="fill:#969696;font-family:Arial, Helvetica;font-size:20;font-weight:bold;stroke:#969696;stroke-linejoin:round;stroke-width:2;text-anchor:middle" transform="matrix(1 0 -.83909963 1 0 0)" x="215.86421" y="45.090252">B.G1</text><text fill="#fff" font-family="Arial, Helvetica" font-size="20" font-weight="bold" text-anchor="middle" transform="matrix(1 0 -.83909963 1 0 0)" x="215.86421" y="45.090252">B.G1</text><circle cx="335.20569" cy="12.957813" fill="#fff" r="6" stroke="#000" stroke-width="2"/><text style="fill:#969696;font-family:Arial, Helvetica;font-size:20;font-weight:bold;stroke:#969696;stroke-linejoin:round;stroke-width:2;text-anchor:middle" transform="matrix(.64278761 -.76604444 1.3054073 0 0 0)" x="-66.915222" y="242.37605">C.G2</text><text fill="#fff" font-family="Arial, Helvetica" font-size="20" font-weight="bold" text-anchor="middle" transform="matrix(.64278761 -.76604444 1.3054073 0 0 0)" x="-66.915222" y="242.37605">C.G2</text><circle cx="219.50391" cy="150.84581" fill="#fff" r="6" stroke="#000" stroke-width="2"/><g font-family="Arial, Helvetica" font-weight="bold"><text style="fill:#969696;font-size:20;stroke:#969696;stroke-linejoin:round;stroke-width:2;text-anchor:middle" transform="matrix(1 0 -.83909963 1 0 0)" x="295.8642" y="129.35515">D.G1</text><text fill="#fff" font-size="20" text-anchor="middle" transform="matrix(1 0 -.83909963 1 0 0)" x="295.8642" y="129.35515">D.G1</text><g font-size="24"><g text-anchor="end"><text stroke="#fff" stroke-linejoin="round" stroke-width="2" x="19.503906" y="343.53381">5'</text><text x="19.503906" y="343.53381">5'</text><text stroke="#fff" stroke-linejoin="round" stroke-width="2" x="19.503906" y="155.64581">3'</text><text x="19.503906" y="155.64581">3'</text><text stroke="#fff" stroke-linejoin="round" stroke-width="2" x="135.20567" y="17.757812">5'</text><text x="135.20567" y="17.757812">5'</text><text stroke="#fff" stroke-linejoin="round" stroke-width="2" x="135.20567" y="205.64581">3'</text><text x="135.20567" y="205.64581">3'</text></g><text stroke="#fff" stroke-linejoin="round" stroke-width="2" x="355.20569" y="205.64581">5'</text><text x="355.20569" y="205.64581">5'</text><text stroke="#fff" stroke-linejoin="round" stroke-width="2" x="355.20569" y="17.757812">3'</text><text x="355.20569" y="17.757812">3'</text><text stroke="#fff" stroke-linejoin="round" stroke-width="2" x="239.50391" y="155.64581">5'</text><text x="239.50391" y="155.64581">5'</text><text stroke="#fff" stroke-linejoin="round" stroke-width="2" x="239.50391" y="343.53381">3'</text><text x="239.50391" y="343.53381">3'</text></g></g></svg>