<svg height="33.730469pt" viewBox="0 0 51.857655 33.730469" width="51.857655pt" xmlns="http://www.w3.org/2000/svg" xmlns:xlink="http://www.w3.org/1999/xlink"><defs><g id="a"><path d="m4.265625-2.359375h-1.75v.75h1c-.03125.25-.09375.40625-.21875.5625-.21875.265625-.5625.421875-.890625.421875-.734375 0-1.25-.640625-1.25-1.546875 0-.9375.453125-1.5 1.21875-1.5.3125 0 .578125.078125.78125.265625.125.09375.1875.203125.265625.4375h.84375c-.109375-.90625-.84375-1.484375-1.890625-1.484375-1.265625 0-2.125.9375-2.125 2.296875 0 1.328125.859375 2.296875 2.046875 2.296875.59375 0 .984375-.21875 1.328125-.703125l.09375.578125h.546875zm0 0"/></g><g id="b"><path d="m3.0625 0h.90625v-4.375h-.90625v2.984375l-1.734375-2.984375h-.921875v4.375h.90625v-3.03125zm0 0"/></g></defs><g transform="translate(-5.77625 -.875)"><g stroke-linecap="round" stroke-linejoin="round" stroke-miterlimit="10" transform="matrix(1 0 0 -1 0 54)"><path d="m39.109375 27.929688v-.238282l.01953-.230468.01172-.242188.03125-.230469.02734-.226562.03906-.242188.05078-.230469.0625-.21875.05859-.230468.07031-.230469.07813-.21875.08203-.21875.08984-.210937.09766-.222657.101563-.207031.121093-.210938.109375-.199218.128906-.199219.132813-.191406.128906-.199219.148438-.179688.140625-.191406.160166-.171875.160156-.179687.328125-.328125.183594-.152344.359375-.296875.1875-.140625.203125-.128906.1875-.132813.199219-.117187.210937-.113281.210938-.109376.210937-.09766.21875-.101562.210938-.07813.230468-.08203.21875-.07813.21875-.0625.230469-.05859.460938-.101563.230469-.03906.238281-.03125.230469-.01953.242187-.0078.226563-.01172h.242187l.230469.01172.238281.0078.230469.01953.230468.03125.230469.03906.238281.05078.222657.05078.226562.05859.230469.0625.222656.07813.21875.08203.21875.07813.222656.101562.207032.09766.210937.109376.199219.113281.203125.117187.199219.132813.199218.128906.179688.140628.191406.148438.179688.148437.167968.152344.171876.167969.167968.160156.160156.179687.152344.171875.148438.191406.140625.179688.140625.199219.128906.191406.121094.199219.117187.199218.113281.210938.109376.207031.08984.222657.09766.210937.08203.21875.07813.21875.07031.230469.0625.230468.04687.21875.05078.230469.03906.242188.04297.226562.01953.230469.01953.242188.01172.230468.0078.238282" fill="none" stroke="#b2df8a" stroke-width="2.25"/><path d="m9.480469 27.929688.007812-.238282.011719-.230468.019531-.242188.019531-.230469.03125-.226562.050782-.242188.039062-.230469.058594-.21875.0625-.230468.070312-.230469.078126-.21875.082031-.21875.08984-.210937.09766-.222657.101562-.207031.121094-.210938.109375-.199218.128906-.199219.128906-.191406.132813-.199219.148437-.179688.140626-.191406.160156-.171875.160156-.179687.328125-.328125.179687-.152344.359376-.296875.191406-.140625.199218-.128906.191407-.132813.210937-.117187.199219-.113281.210937-.109376.207032-.09766.222656-.101562.21875-.07813.21875-.08203.222656-.07813.230469-.0625.21875-.05859.460937-.101563.226563-.03906.242187-.03125.230469-.01953.238281-.0078.230469-.01172h.242188l.226562.01172.242188.0078.230469.01953.230468.03125.238282.03906.460937.101563.21875.05859.230469.0625.21875.07813.222656.08203.21875.07813.21875.101562.210938.09766.210937.109376.199219.113281.199218.117187.199219.132813.203125.128906.179688.140625.1875.148438.179687.148437.171875.152344.167969.167969.171875.160156.160156.179687.148438.171875.152344.191406.140624.179688.136719.199219.132813.191406.117187.199219.121094.199218.109375.210938.109375.207031.09375.222657.09766.210937.08203.21875.07813.21875.07031.230469.05859.230468.05078.21875.05078.230469.03906.242188.03906.226562.02344.230469.01953.242188.0078.230468.01172.238282" fill="none" stroke="#b2df8a" stroke-width="2.25"/><path d="m53.929688 37.191406-.0078.46875-.02344.460938-.03906.46875-.05078.46875-.07031.472656-.07813.457031-.101562.460938-.109375.460937-.121094.449219-.136719.449219-.160156.441406-.171875.441406-.179687.429688-.191407.429687-.207031.417969-.222656.421875-.238282.410156-.25.390625-.261718.398438-.269532.378906-.277343.371094-.300781.371094-.3125.347656-.320313.351562-.328125.328125-.339844.332031-.351562.308594-.359375.300782-.371094.289062-.378906.28125-.378907.269531-.398437.25-.402344.25-.410156.21875-.417969.222657-.421875.199218-.441406.191406-.429687.167969-.4375.171875-.449219.136719-.453125.132813-.457032.117187-.453124.113281-.46875.07813-.460938.08203-.46875.05859-.460938.03906-.46875.03125-.468762.019534h-.472656l-.46875-.01953-.46875-.03125-.472656-.039064-.46875-.058594-.460938-.08203-.460937-.07813-.457031-.113281-.460938-.117187-.449218-.132813-.441407-.136719-.449219-.171875-.429687-.167969-.429687-.191406-.429688-.199218-.421875-.222657-.410156-.21875-.398438-.25-.402343-.25-.378907-.269527-.378906-.28125-.371094-.289062-.359375-.300782-.351562-.308594-.339844-.332031-.328125-.328125-.320313-.351562-.308593-.347656-.292969-.371094-.289062-.371094-.269532-.378906-.261718-.398438-.25-.390625-.226563-.410156-.230469-.421875-.210937-.417969-.191407-.429687-.179687-.429688-.167969-.441406-.152344-.441406-.140624-.449219-.128907-.449219-.109375-.460937-.101562-.460938-.07813-.457031-.05859-.472656-.0625-.46875-.03125-.46875-.02734-.460938v-.46875" fill="none" stroke="#b2df8a" stroke-width="2.25"/><path d="m39.109375 37.191406-.0078.46875-.02344.460938-.03906.46875-.05078.46875-.05859.472656-.08984.457031-.08984.460938-.109375.460937-.128906.449219-.140625.449219-.152344.441406-.167969.441406-.179687.429688-.199219.429687-.210937.417969-.222657.421875-.226562.410156-.25.390625-.261719.398438-.269531.378906-.289063.371094-.292968.371094-.308594.347656-.320313.351562-.328125.328125-.339844.332031-.351587.308594-.359375.300782-.371094.289062-.378906.28125-.390625.269531-.390625.25-.410156.25-.410157.21875-.410156.222657-.429687.199218-.429688.191406-.441406.167969-.4375.171875-.441406.136719-.460938.132813-.449219.117187-.460937.113281-.457031.07813-.472656.08203-.457032.05859-.472656.03906-.46875.031253-.46875.019531h-.472656l-.46875-.01953-.46875-.03125-.472656-.03906-.457032-.05859-.472656-.08203-.457031-.07813-.460938-.113281-.449219-.117187-.453124-.132813-.449219-.136719-.4375-.171875-.441407-.167969-.429687-.191406-.421875-.199218-.417969-.222657-.410156-.21875-.402344-.25-.398437-.25-.390625-.269535-.378907-.28125-.371093-.289062-.359375-.300782-.351563-.308594-.339843-.332031-.328126-.328125-.308593-.351562-.3125-.347656-.300781-.371094-.277344-.371094-.28125-.378906-.261719-.398438-.238281-.390625-.238282-.410156-.222656-.421875-.207031-.417969-.203125-.429687-.179688-.429688-.167968-.441406-.152344-.441406-.140625-.449219-.117187-.449219-.109376-.460937-.101562-.460938-.078125-.457031-.070313-.472656-.050781-.46875-.039062-.46875-.023438-.460938-.007812-.46875" fill="none" stroke="#b2df8a" stroke-width="2.25"/><path d="m5.78125 37.191406h7.410156v-9.261718h-7.410156zm0 0" fill="#f15a22" stroke="#fff" stroke-width=".01"/><path d="m13.191406 37.191406h7.410156v-9.261718h-7.410156zm0 0" fill="#da6fab" stroke="#fff" stroke-width=".01"/><path d="m20.589844 37.191406h7.410156v-9.261718h-7.410156zm0 0" fill="#f15a22" stroke="#fff" stroke-width=".01"/><path d="m28 37.191406h7.410156v-9.261718h-7.410156zm0 0" fill="#da6fab" stroke="#fff" stroke-width=".01"/><path d="m35.410156 37.191406h7.410156v-9.261718h-7.410156zm0 0" fill="#f15a22" stroke="#fff" stroke-width=".01"/><path d="m42.808594 37.191406h7.410156v-9.261718h-7.410156zm0 0" fill="#da6fab" stroke="#fff" stroke-width=".01"/><path d="m50.21875 37.191406h7.410156v-9.261718h-7.410156zm0 0" fill="#f15a22" stroke="#fff" stroke-width=".01"/></g><use fill="#fff" x="7.15" xlink:href="#a" y="23.6"/><use fill="#fff" x="14.72" xlink:href="#b" y="23.6"/><use fill="#fff" x="21.959999" xlink:href="#a" y="23.6"/><use fill="#fff" x="29.540001" xlink:href="#b" y="23.6"/><use fill="#fff" x="36.779999" xlink:href="#a" y="23.6"/><use fill="#fff" x="44.349998" xlink:href="#b" y="23.6"/><use fill="#fff" x="51.59" xlink:href="#a" y="23.6"/></g></svg>