<svg height="33.730469pt" viewBox="0 0 51.857655 33.730469" width="51.857655pt" xmlns="http://www.w3.org/2000/svg" xmlns:xlink="http://www.w3.org/1999/xlink"><defs><g id="a"><path d="m4.265625-2.359375h-1.75v.75h1c-.03125.25-.09375.40625-.21875.5625-.21875.265625-.5625.421875-.890625.421875-.734375 0-1.25-.640625-1.25-1.546875 0-.9375.453125-1.5 1.21875-1.5.3125 0 .578125.078125.78125.265625.125.09375.1875.203125.265625.4375h.84375c-.109375-.90625-.84375-1.484375-1.890625-1.484375-1.265625 0-2.125.9375-2.125 2.296875 0 1.328125.859375 2.296875 2.046875 2.296875.59375 0 .984375-.21875 1.328125-.703125l.09375.578125h.546875zm0 0"/></g><g id="b"><path d="m3.0625 0h.90625v-4.375h-.90625v2.984375l-1.734375-2.984375h-.921875v4.375h.90625v-3.03125zm0 0"/></g></defs><g transform="translate(-5.77625 -.875)"><g stroke-linecap="round" stroke-linejoin="round" stroke-miterlimit="10" transform="matrix(1 0 0 -1 0 54)"><path d="m24.300781 35.328125v-.46875l.02734-.46875.03125-.460937.0625-.46875.05859-.472657.07813-.457031.101562-.460938.109375-.460937.128907-.449219.140624-.449218.152344-.441407.167969-.441406.179687-.4375.191407-.421875.210937-.429688.230469-.410156.226563-.410156.25-.398438.261718-.390624.269532-.378907.289062-.371093.292969-.371094.308593-.347656.320313-.351563.328125-.339844.339844-.320312.351562-.308594.359375-.3125.371094-.289063.757816-.539062.402343-.261719.398438-.238281.410156-.230469.421875-.210937.429688-.199219.429687-.1875.429687-.183594.449219-.160156.441407-.136719.449218-.140625.460938-.109375.457031-.113281.460937-.08984.460938-.06641.46875-.0625.472656-.03906.46875-.03125.46875-.01953h.472656l.46875.01953.46875.03125.460938.03906.46875.0625.460938.06641.46875.08984.453124.113281.457032.109375.453125.140625.449219.136719.4375.160156.429687.183594.441406.1875.421875.199219.417969.210937.410156.230469.402344.238281.398437.261719.757813.539062.371094.289063.359375.3125.351562.308594.339844.320312.328125.339844.320313.351563.3125.347656.300781.371094.277343.371093.269532.378907.261718.390624.25.398438.238282.410156.222656.410156.207031.429688.191407.421875.179687.4375.171875.441406.160156.441407.136719.449218.121094.449219.109375.460937.101562.460938.07813.457031.07031.472657.05078.46875.03906.460937.02344.46875.0078.46875" fill="none" stroke="#33a02c" stroke-width="2.25"/><path d="m9.480469 35.328125.00781-.46875.023438-.46875.039062-.460937.050781-.46875.070315-.472657.078125-.457031.101562-.460938.109376-.460937.117187-.449219.140625-.449218.152344-.441407.167968-.441406.179688-.4375.203125-.421875.207031-.429688.222656-.410156.238282-.410156.238281-.398438.261719-.390624.28125-.378907.277344-.371093.300781-.371094.3125-.347656.308593-.351563.328126-.339844.339843-.320312.351563-.308594.359375-.3125.371093-.289063.378907-.269531.390625-.269531.398437-.261719.402344-.238281.410156-.230469.417969-.210937.421875-.199219.429687-.1875.441407-.183594.4375-.160156.449219-.136719.453124-.140625.449219-.109375.460938-.113281.457031-.08984.472656-.06641.457032-.0625.472656-.03906.46875-.03125.46875-.01953h.472656l.46875.019527.46875.03125.472656.03906.457032.0625.472656.06641.457031.08984.460937.113281.449219.109375.460938.140625.441406.136719.4375.160156.441406.183594.429688.1875.429687.199219.410156.210937.410157.230472.410156.238281.390625.261719.390625.269531.378906.269531.371094.289063.359375.3125.351562.308594.339844.320312.328125.339844.320313.351563.308594.347656.292968.371094.289063.371093.269531.378907.261719.390624.25.398438.226562.410156.222657.410156.210937.429688.199219.421875.179687.4375.167969.441406.152344.441407.140625.449218.128906.449219.109375.460937.08984.460938.08984.457031.05859.472657.05078.46875.03906.460937.02344.46875.0078.46875" fill="none" stroke="#33a02c" stroke-width="2.25"/><path d="m53.929688 44.589844-.0078.238281-.01172.230469-.01953.242187-.01953.230469-.04297.230469-.03906.226562-.05078.230469-.04687.230469-.0625.230469-.07031.21875-.07813.230468-.08203.222656-.09766.207032-.08984.222656-.109376.207031-.113281.203125-.117187.207032-.121094.203124-.128906.1875-.28125.382813-.148438.179687-.152344.179688-.160156.167969-.167968.171875-.171876.160156-.167968.160156-.179688.148438-.191426.148437-.179688.140625-.199218.132813-.199219.128906-.203125.121094-.199219.109375-.210937.109375-.207032.09766-.222656.09375-.21875.08984-.21875.07813-.222656.08203-.230469.05859-.226562.05859-.222657.05078-.238281.05078-.230469.03125-.230468.02734-.230469.03125-.238281.0078-.230469.011741h-.242187l-.226563-.01172-.242187-.0078-.230469-.03125-.238281-.02734-.230469-.03125-.460938-.101563-.230469-.05859-.21875-.05859-.21875-.08203-.230468-.07813-.210938-.08984-.21875-.09375-.210937-.09766-.421875-.21875-.199219-.121094-.1875-.128906-.203125-.132831-.1875-.140625-.359375-.296875-.183594-.160156-.167969-.160156-.160156-.171875-.160156-.167969-.160156-.179688-.140625-.179687-.148438-.191406-.128906-.191407-.132813-.1875-.128906-.203124-.109375-.207032-.121093-.203125-.101563-.207031-.09766-.222656-.08984-.207032-.08203-.222656-.07813-.230468-.07031-.21875-.05859-.230469-.0625-.230469-.05078-.230469-.03906-.226562-.02734-.230469-.03125-.230469-.01172-.242187-.01953-.230469v-.238281" fill="none" stroke="#33a02c" stroke-width="2.25"/><path d="m24.300781 44.589844-.01172.238281-.0078.230469-.01953.242187-.02344.230469-.03906.230469-.03906.226562-.101562.460938-.058609.230469-.07031.21875-.07813.230468-.08203.222656-.09766.207032-.09375.222656-.109375.207031-.109375.203125-.121094.207032-.117187.203124-.132813.1875-.136719.191407-.140624.191406-.152344.179687-.148438.179688-.160156.167969-.171875.171875-.167969.160156-.171875.160156-.179687.148438-.1875.148437-.179688.140625-.203125.132813-.199219.128906-.199218.121094-.199219.109375-.210937.109375-.210938.09766-.21875.09375-.21875.08984-.222656.07813-.21875.08203-.230469.05859-.21875.05859-.460937.101563-.238282.03125-.230468.02734-.230469.03125-.242188.0078-.226557.011738h-.242188l-.230469-.01172-.238281-.0078-.230469-.03125-.242187-.02734-.226563-.03125-.460937-.101563-.21875-.05859-.230469-.05859-.222656-.08203-.21875-.07813-.21875-.08984-.222656-.09375-.207032-.09766-.210937-.109393-.199219-.109375-.210937-.121094-.191407-.128906-.199218-.132813-.191406-.140625-.359376-.296875-.179687-.160156-.167969-.160156-.160156-.171875-.160156-.167969-.160156-.179688-.140626-.179687-.148437-.191406-.132813-.191407-.128906-.1875-.128906-.203124-.109375-.207032-.121094-.203125-.101562-.207031-.097657-.222656-.089843-.207032-.082031-.222656-.078126-.230468-.070312-.21875-.0625-.230469-.058594-.230469-.039062-.230469-.050782-.226562-.03125-.230469-.019531-.230469-.019531-.242187-.011719-.230469-.007812-.238281" fill="none" stroke="#33a02c" stroke-width="2.25"/><path d="m5.78125 44.589844h7.410156v-9.261719h-7.410156zm0 0" fill="#f15a22" stroke="#fff" stroke-width=".01"/><path d="m13.191406 44.589844h7.410156v-9.261719h-7.410156zm0 0" fill="#da6fab" stroke="#fff" stroke-width=".01"/><path d="m20.589844 44.589844h7.410156v-9.261719h-7.410156zm0 0" fill="#f15a22" stroke="#fff" stroke-width=".01"/><path d="m28 44.589844h7.410156v-9.261719h-7.410156zm0 0" fill="#da6fab" stroke="#fff" stroke-width=".01"/><path d="m35.410156 44.589844h7.410156v-9.261719h-7.410156zm0 0" fill="#f15a22" stroke="#fff" stroke-width=".01"/><path d="m42.808594 44.589844h7.410156v-9.261719h-7.410156zm0 0" fill="#da6fab" stroke="#fff" stroke-width=".01"/><path d="m50.21875 44.589844h7.410156v-9.261719h-7.410156zm0 0" fill="#f15a22" stroke="#fff" stroke-width=".01"/></g><use fill="#fff" x="7.15" xlink:href="#a" y="16.190001"/><use fill="#fff" x="14.72" xlink:href="#b" y="16.190001"/><use fill="#fff" x="21.959999" xlink:href="#a" y="16.190001"/><use fill="#fff" x="29.540001" xlink:href="#b" y="16.190001"/><use fill="#fff" x="36.779999" xlink:href="#a" y="16.190001"/><use fill="#fff" x="44.349998" xlink:href="#b" y="16.190001"/><use fill="#fff" x="51.59" xlink:href="#a" y="16.190001"/></g></svg>