<svg height="41.128906pt" viewBox="0 0 51.857655 41.128906" width="51.857655pt" xmlns="http://www.w3.org/2000/svg" xmlns:xlink="http://www.w3.org/1999/xlink"><defs><g id="a"><path d="m4.265625-2.359375h-1.75v.75h1c-.03125.25-.09375.40625-.21875.5625-.21875.265625-.5625.421875-.890625.421875-.734375 0-1.25-.640625-1.25-1.546875 0-.9375.453125-1.5 1.21875-1.5.3125 0 .578125.078125.78125.265625.125.09375.1875.203125.265625.4375h.84375c-.109375-.90625-.84375-1.484375-1.890625-1.484375-1.265625 0-2.125.9375-2.125 2.296875 0 1.328125.859375 2.296875 2.046875 2.296875.59375 0 .984375-.21875 1.328125-.703125l.09375.578125h.546875zm0 0"/></g><g id="b"><path d="m3.0625 0h.90625v-4.375h-.90625v2.984375l-1.734375-2.984375h-.921875v4.375h.90625v-3.03125zm0 0"/></g></defs><g transform="translate(-5.77625 -.175781)"><g stroke-linecap="round" stroke-linejoin="round" stroke-miterlimit="10" transform="matrix(1 0 0 -1 0 61)"><path d="m39.109375 28.21875v-.230469l.01953-.238281.01172-.230469.03125-.238281.02734-.230469.03906-.230469.05078-.230468.0625-.230469.05859-.21875.07031-.230469.07813-.21875.08203-.222656.08984-.21875.09766-.210938.101563-.210937.121093-.207031.109375-.199219.128906-.203125.132813-.199219.128906-.191406.148438-.1875.140625-.179687.160166-.179688.160156-.171875.160156-.167969.167969-.160156.183594-.160156.179687-.152344.179688-.140625.1875-.136719.203125-.132812.1875-.128906.199219-.121094.210937-.117188.210938-.101562.210937-.109375.21875-.08984.210938-.08984.230468-.08203.4375-.140625.230469-.05859.230469-.050794.460938-.07813.238281-.03125.230469-.01953.242187-.01953h.699219l.238281.01953.230469.01953.230468.03125.230469.03906.238281.03906.222657.05078.226562.05859.230469.07031.222656.07031.21875.08203.21875.08984.222656.08984.207032.109375.210937.101562.199219.117188.203125.121094.199219.128906.199218.132812.179688.136748.191406.140625.179688.152344.167968.160156.171876.160156.167968.167969.160156.171875.152344.179688.148438.179687.140625.1875.140625.191406.128906.199219.121094.203125.117187.199219.113281.207031.109376.210937.08984.210938.09766.21875.08203.222656.07813.21875.07031.230469.0625.21875.04687.230469.05078.230468.03906.230469.04297.230469.01953.238281.01953.230469.01172.238281.0078.230469" fill="none" stroke="#a6cee3" stroke-width="2.25"/><path d="m9.480469 28.21875.007812-.230469.011719-.238281.019531-.230469.019531-.238281.03125-.230469.050782-.230469.039062-.230468.058594-.230469.0625-.21875.070312-.230469.078126-.21875.082031-.222656.08984-.21875.09766-.210938.101562-.210937.121094-.207031.109375-.199219.128906-.203125.128906-.199219.132813-.191406.148437-.1875.140626-.179687.160156-.179688.160156-.171875.160156-.167969.167969-.160156.179687-.160156.179688-.152344.179688-.140625.191406-.136719.199218-.132812.191407-.128906.210937-.121094.199219-.117188.210937-.101562.207032-.109375.222656-.08984.21875-.08984.21875-.08203.222656-.07031.230469-.07031.21875-.05859.230469-.05078.230468-.03906.226563-.03906.242187-.03125.230469-.01953.238281-.01953h.699219l.242188.01953.230469.01953.230468.03125.238282.03906.230468.03906.230469.05078.21875.05859.230469.07031.21875.07031.222656.08203.4375.179688.210938.109375.210937.101562.199219.117188.199218.121094.199219.128906.203125.132812.179688.136719.1875.140625.179687.152344.171875.160156.167969.160156.171875.167969.160156.171875.148438.179688.152344.179687.140624.1875.136719.191406.132813.199219.117187.203125.121094.199219.109375.207031.109375.210937.09375.210938.09766.21875.08203.222656.07813.21875.07031.230469.05859.21875.101562.460937.07813.460938.02344.238281.01953.230469.0078.238281.01172.230469" fill="none" stroke="#a6cee3" stroke-width="2.25"/><path d="m53.929688 37.480469-.01953.710937-.03125.699219-.05078.699219-.07813.699218-.101562.699219-.128907.703125-.140625.6875-.167968.679688-.179688.679687-.210938.683594-.230468.65625-.261719.660156-.269531.652344-.289063.640625-.308593.628906-.339844.628906-.351563.609376-.371093.601562-.386719.578125-.410157.582031-.429687.558594-.441406.550781-.460938.53125-.480469.519531-.5.5-.507812.488282-.519531.472656-.542969.449219-.558594.441406-.570312.40625-.578125.402344-.589844.378906-.613281.371094-.609375.339843-.628907.320313-.628906.308594-.652344.28125-.660156.257812-.660156.242188-.667969.21875-.671875.199219-.6875.179687-.691406.152344-.691406.140625-.6875.109375-.699219.08984-.710937.05859-.699219.05078-.703125.01953h-.707032l-.703124-.01953-.707032-.05078-.703125-.05859-.699219-.08984-.699218-.109375-.691406-.140625-.6875-.152344-.679688-.179687-.671875-.199219-.667969-.21875-.671875-.242188-.648437-.257812-.652344-.28125-.628906-.308594-.628906-.320313-.621094-.339843-.601563-.371094-.597656-.378906-.582031-.402344-.558594-.40625-.558594-.441406-.542968-.449219-.519532-.472656-.507812-.488282-.5-.5-.480469-.519531-.460937-.53125-.441405-.550781-.429687-.558594-.410156-.582031-.386719-.578125-.371094-.601562-.359375-.609376-.332031-.628906-.308594-.628906-.289063-.640625-.28125-.652344-.25-.660156-.230468-.65625-.210938-.683594-.1875-.679687-.160156-.679688-.152344-.6875-.117187-.703125-.101563-.699219-.082031-.699218-.046875-.699219-.042969-.699219-.007812-.710937" fill="none" stroke="#a6cee3" stroke-width="2.25"/><path d="m39.109375 37.480469v.238281l-.0078.230469-.02344.242187-.02734.230469-.03125.226563-.03906.230468-.05078.230469-.05859.230469-.0625.230468-.07031.21875-.07813.222657-.08203.21875-.08984.21875-.09766.222656-.101563.207031-.109374.199219-.121094.210937-.117188.199219-.132812.191407-.136719.191406-.140625.1875-.152344.179687-.160156.183594-.160156.167969-.160156.171875-.167969.160156-.179688.15625-.179687.152344-.179688.148437-.191426.140625-.191406.128907-.199219.132812-.199219.117188-.210937.113281-.210938.109375-.207031.09766-.210938.08984-.21875.08984-.222656.08203-.230468.07031-.21875.07031-.230469.05859-.460938.101562-.226562.02734-.242188.03125-.230469.03125-.230468.0078-.238282.01172h-.230468l-.238282-.01172-.230468-.0078-.242188-.03125-.230468-.03125-.226563-.02734-.460937-.101562-.230469-.05859-.230469-.07031-.21875-.07031-.222656-.08203-.21875-.08984-.210938-.08984-.21875-.09766-.199218-.109375-.210938-.113281-.199219-.117188-.199219-.132812-.191406-.128907-.191406-.140625-.1875-.148437-.179688-.152344-.171874-.15625-.167969-.160156-.171875-.171875-.160156-.167969-.148438-.183594-.152344-.179687-.140625-.1875-.136719-.191406-.132812-.191407-.117188-.199219-.121093-.210937-.109375-.199219-.101563-.207031-.09766-.222656-.09375-.21875-.08984-.21875-.06641-.222657-.07031-.21875-.07031-.230468-.101562-.460938-.03906-.230468-.03125-.226563-.03125-.230469-.01953-.242187-.0078-.230469v-.238281" fill="none" stroke="#a6cee3" stroke-width="2.25"/><path d="m5.78125 37.480469h7.410156v-9.261719h-7.410156zm0 0" fill="#f15a22" stroke="#fff" stroke-width=".01"/><path d="m13.191406 37.480469h7.410156v-9.261719h-7.410156zm0 0" fill="#da6fab" stroke="#fff" stroke-width=".01"/><path d="m20.589844 37.480469h7.410156v-9.261719h-7.410156zm0 0" fill="#f15a22" stroke="#fff" stroke-width=".01"/><path d="m28 37.480469h7.410156v-9.261719h-7.410156zm0 0" fill="#da6fab" stroke="#fff" stroke-width=".01"/><path d="m35.410156 37.480469h7.410156v-9.261719h-7.410156zm0 0" fill="#f15a22" stroke="#fff" stroke-width=".01"/><path d="m42.808594 37.480469h7.410156v-9.261719h-7.410156zm0 0" fill="#da6fab" stroke="#fff" stroke-width=".01"/><path d="m50.21875 37.480469h7.410156v-9.261719h-7.410156zm0 0" fill="#f15a22" stroke="#fff" stroke-width=".01"/></g><use fill="#fff" x="7.15" xlink:href="#a" y="30.299999"/><use fill="#fff" x="14.72" xlink:href="#b" y="30.299999"/><use fill="#fff" x="21.959999" xlink:href="#a" y="30.299999"/><use fill="#fff" x="29.540001" xlink:href="#b" y="30.299999"/><use fill="#fff" x="36.779999" xlink:href="#a" y="30.299999"/><use fill="#fff" x="44.349998" xlink:href="#b" y="30.299999"/><use fill="#fff" x="51.59" xlink:href="#a" y="30.299999"/></g></svg>