<svg height="41.128906pt" viewBox="0 0 51.857655 41.128906" width="51.857655pt" xmlns="http://www.w3.org/2000/svg" xmlns:xlink="http://www.w3.org/1999/xlink"><defs><g id="a"><path d="m4.265625-2.359375h-1.75v.75h1c-.03125.25-.09375.40625-.21875.5625-.21875.265625-.5625.421875-.890625.421875-.734375 0-1.25-.640625-1.25-1.546875 0-.9375.453125-1.5 1.21875-1.5.3125 0 .578125.078125.78125.265625.125.09375.1875.203125.265625.4375h.84375c-.109375-.90625-.84375-1.484375-1.890625-1.484375-1.265625 0-2.125.9375-2.125 2.296875 0 1.328125.859375 2.296875 2.046875 2.296875.59375 0 .984375-.21875 1.328125-.703125l.09375.578125h.546875zm0 0"/></g><g id="b"><path d="m3.0625 0h.90625v-4.375h-.90625v2.984375l-1.734375-2.984375h-.921875v4.375h.90625v-3.03125zm0 0"/></g></defs><g transform="translate(-5.77625 -.175781)"><g stroke-linecap="round" stroke-linejoin="round" stroke-miterlimit="10" transform="matrix(1 0 0 -1 0 61)"><path d="m9.480469 43.039062.00781-.710937.042969-.699219.046875-.707031.082031-.703125.101563-.6875.117187-.703125.152344-.6875.160156-.679687.1875-.679688.210938-.679688.230468-.660156.25-.660156.28125-.652344.289063-.640625.308594-.636719.332031-.621093.359375-.609375.371094-.601563.386719-.578125.410156-.582031.429687-.558594.441407-.550781.460937-.53125.480469-.519531.5-.5.507812-.488281.519532-.472657.542968-.449219.558594-.4375.558594-.410156.582031-.402344.597656-.390624.601563-.359376.621094-.339843.628906-.320313.628906-.308594.652344-.28125.648437-.257812.671875-.242188.667969-.21875.671875-.199218.679688-.179688.6875-.152344.691406-.140624.699218-.109376.699219-.08984.703125-.07031.707032-.03906.703124-.01953h.707032l.703125.01953.699219.03906.710937.07031.699219.08984.6875.109376.691406.140624.691406.152344.6875.179688.671875.199218.667969.21875.660156.242188.660156.257812.652344.28125.628906.308594.628907.320313.609375.339843.613281.359376.589844.390624.578125.402344.570312.410156.558594.4375.542969.449219.519531.472657.507812.488281.5.5.480469.519531.460938.53125.441406.550781.429687.558594.410157.582031.386719.578125.371093.601563.351563.609375.339844.621093.308593.636719.289063.640625.269531.652344.261719.660156.230468.660156.210938.679688.179688.679688.167968.679687.140625.6875.128907.703125.101562.6875.07813.703125.05078.707031.03125.699219.01953.710937" fill="none" stroke="#1f78b4" stroke-width="2.25"/><path d="m24.300781 43.039062v-.238281l.0078-.230469.01953-.242187.03125-.226563.03125-.230468.03906-.230469.101562-.460937.07031-.230469.07031-.21875.06641-.230469.08984-.21875.09375-.210938.09766-.21875.101563-.210937.109375-.199219.121093-.210937.117188-.199219.132812-.191406.136719-.191406.140625-.1875.152344-.179688.148438-.179688.160156-.171874.171875-.167969.167969-.160157.171874-.160156.179688-.152344.1875-.148437.191424-.140625.191406-.128906.199219-.132813.199219-.117187.210938-.109375.199218-.113281.21875-.09766.210938-.101562.21875-.07813.222656-.08203.21875-.07812.230469-.0625.230469-.05859.460937-.101563.226563-.02734.230468-.03125.242188-.03125.230468-.0078.238282-.01172h.230468l.238282.01172.230468.0078.230469.03125.242188.03125.226562.02734.460938.101563.230469.05859.21875.0625.230468.07812.222656.08203.21875.07813.210938.101562.207031.09766.210938.113281.210937.109375.199219.117187.199219.132813.191406.128906.191406.140625.179688.148437.179687.152344.179688.160156.167969.160157.160156.167969.160156.171874.160156.179688.152344.179688.140625.1875.136719.191406.132812.191406.117188.199219.121094.210937.109374.199219.101563.210937.09766.21875.08984.210938.08203.21875.07813.230469.07031.21875.0625.230469.05859.230468.05078.230469.03906.230469.03125.230468.02734.226563.02344.242187.0078.230469v.238281" fill="none" stroke="#1f78b4" stroke-width="2.25"/><path d="m53.929688 52.300781-.0078.230469-.01172.238281-.03906.460938-.04297.238281-.03906.230469-.05078.230469-.04687.230468-.0625.21875-.07031.230469-.07813.21875-.08203.222656-.09766.21875-.08984.210938-.109376.210937-.113281.207032-.117187.203124-.121114.199219-.128906.199219-.140625.191406-.140625.1875-.148438.179688-.152344.179687-.160156.171875-.167968.167969-.171876.160156-.167968.152344-.179688.160156-.191406.140625-.179688.136719-.199218.132813-.199219.128906-.203125.121094-.199219.117187-.210937.101563-.207032.101562-.222656.09766-.21875.08984-.21875.08203-.222656.07031-.230469.07031-.226562.04687-.222657.0625-.238281.03906-.230469.03906-.230468.03125-.230469.01953-.238281.01953h-.699219l-.242187-.01953-.230469-.01953-.238281-.03125-.460938-.078109-.230469-.0625-.230469-.04687-.4375-.140625-.230468-.08203-.210938-.08984-.21875-.09766-.421875-.203125-.210937-.117187-.199219-.121094-.1875-.128906-.203125-.132819-.1875-.136719-.179688-.140625-.179687-.160156-.183594-.152344-.167969-.160156-.160156-.167969-.160156-.171875-.160156-.179687-.140625-.179688-.148438-.1875-.128906-.191406-.132813-.199219-.128906-.199219-.109375-.203124-.121093-.207032-.101563-.210937-.09766-.210938-.08984-.21875-.08203-.222656-.07813-.21875-.07031-.230469-.05859-.21875-.0625-.230468-.05078-.230469-.03906-.230469-.02734-.238281-.03126-.230469-.011719-.230469-.019531-.238281v-.230469" fill="none" stroke="#1f78b4" stroke-width="2.25"/><path d="m24.300781 52.300781-.01172.230469-.0078.238281-.019542.230469-.02344.230469-.03906.238281-.03906.230469-.101562.460937-.05859.21875-.07031.230469-.07813.21875-.08203.222656-.09766.21875-.09375.210938-.109375.210937-.109375.207032-.121094.203124-.117187.199219-.132813.199219-.136719.191406-.140624.1875-.152344.179688-.148438.179687-.160156.171875-.171875.167969-.167969.160156-.171875.152344-.179687.160156-.1875.140625-.179688.136719-.203125.132813-.199219.128906-.199218.121094-.199219.117187-.421875.203125-.21875.09766-.21875.08984-.222656.08203-.21875.07031-.230469.07031-.21875.04687-.230469.0625-.230468.03906-.238282.03906-.230468.03125-.230469.01953-.242188.01953h-.699219l-.238281-.01953-.230469-.01953-.242187-.03125-.226563-.03906-.230468-.03906-.230469-.0625-.21875-.04687-.230469-.07031-.222658-.070309-.21875-.082031-.21875-.089844-.222656-.097656-.207032-.101562-.210937-.101563-.199219-.117187-.210937-.121094-.191407-.128906-.199218-.132813-.191406-.136719-.179688-.140625-.179688-.160156-.179687-.152344-.167969-.160156-.160156-.167969-.160156-.171875-.160156-.179687-.140626-.179688-.148437-.1875-.132813-.191406-.257812-.398438-.109375-.203124-.121094-.207032-.101562-.210937-.097657-.210938-.089843-.21875-.082031-.222656-.078126-.21875-.070312-.230469-.0625-.21875-.058594-.230468-.039062-.230469-.050782-.230469-.03125-.238281-.039062-.460938-.011719-.238281-.007812-.230469" fill="none" stroke="#1f78b4" stroke-width="2.25"/><path d="m5.78125 52.300781h7.410156v-9.261719h-7.410156zm0 0" fill="#f15a22" stroke="#fff" stroke-width=".01"/><path d="m13.191406 52.300781h7.410156v-9.261719h-7.410156zm0 0" fill="#da6fab" stroke="#fff" stroke-width=".01"/><path d="m20.589844 52.300781h7.410156v-9.261719h-7.410156zm0 0" fill="#f15a22" stroke="#fff" stroke-width=".01"/><path d="m28 52.300781h7.410156v-9.261719h-7.410156zm0 0" fill="#da6fab" stroke="#fff" stroke-width=".01"/><path d="m35.410156 52.300781h7.410156v-9.261719h-7.410156zm0 0" fill="#f15a22" stroke="#fff" stroke-width=".01"/><path d="m42.808594 52.300781h7.410156v-9.261719h-7.410156zm0 0" fill="#da6fab" stroke="#fff" stroke-width=".01"/><path d="m50.21875 52.300781h7.410156v-9.261719h-7.410156zm0 0" fill="#f15a22" stroke="#fff" stroke-width=".01"/></g><use fill="#fff" x="7.15" xlink:href="#a" y="15.49"/><use fill="#fff" x="14.72" xlink:href="#b" y="15.49"/><use fill="#fff" x="21.959999" xlink:href="#a" y="15.49"/><use fill="#fff" x="29.540001" xlink:href="#b" y="15.49"/><use fill="#fff" x="36.779999" xlink:href="#a" y="15.49"/><use fill="#fff" x="44.349998" xlink:href="#b" y="15.49"/><use fill="#fff" x="51.59" xlink:href="#a" y="15.49"/></g></svg>