<svg height="48.539062pt" viewBox="0 0 51.857655 48.539062" width="51.857655pt" xmlns="http://www.w3.org/2000/svg" xmlns:xlink="http://www.w3.org/1999/xlink"><defs><g id="a"><path d="m4.265625-2.359375h-1.75v.75h1c-.03125.25-.09375.40625-.21875.5625-.21875.265625-.5625.421875-.890625.421875-.734375 0-1.25-.640625-1.25-1.546875 0-.9375.453125-1.5 1.21875-1.5.3125 0 .578125.078125.78125.265625.125.09375.1875.203125.265625.4375h.84375c-.109375-.90625-.84375-1.484375-1.890625-1.484375-1.265625 0-2.125.9375-2.125 2.296875 0 1.328125.859375 2.296875 2.046875 2.296875.59375 0 .984375-.21875 1.328125-.703125l.09375.578125h.546875zm0 0"/></g><g id="b"><path d="m3.0625 0h.90625v-4.375h-.90625v2.984375l-1.734375-2.984375h-.921875v4.375h.90625v-3.03125zm0 0"/></g></defs><g transform="translate(-5.77625 -1.476562)"><g stroke-linecap="round" stroke-linejoin="round" stroke-miterlimit="10" transform="matrix(1 0 0 -1 0 70)"><path d="m24.300781 35.929688v-.46875l.02734-.472657.03125-.46875.0625-.46875.05859-.460937.07813-.46875.101562-.460938.109375-.449218.128907-.460938.140624-.449219.152344-.441406.167969-.4375.179687-.433594.191407-.429687.210937-.417969.230469-.421875.226563-.398438.25-.398437.261718-.390625.269532-.390625.289062-.371094.292969-.371093.308593-.347657.320313-.351562.328125-.328125.339844-.332032.351562-.308593.359375-.300781.371094-.289063.378906-.28125.378907-.269531.402343-.25.398438-.238282.410156-.230468.421875-.222656.429688-.199219.429687-.1875.429687-.171875.449219-.160156.441407-.148438.449218-.132812.460938-.117188.457031-.101562.460937-.08984.460941-.078129.46875-.0625.472656-.03906.46875-.03125.46875-.01953h.472656l.46875.01953.46875.03125.460938.03906.46875.0625.460938.07813.46875.08984.453124.101562.457032.117188.453125.132812.449219.148438.4375.160156.429687.171875.441406.1875.421875.199219.417969.222656.410156.230468.402344.238282.398437.25.378907.269531.378906.28125.371094.289063.359375.300781.351562.308593.339844.332032.328125.328125.320313.351562.3125.347657.300781.371093.277343.371094.269532.390625.261718.390625.25.398437.238282.398438.222656.421875.207031.417969.191407.429687.179687.433594.171875.4375.160156.441406.136719.449219.121094.460938.109375.449218.101562.460938.07813.46875.07031.460937.05078.46875.03906.46875.02344.472657.0078.46875" fill="none" stroke="#fdbf6f" stroke-width="2.25"/><path d="m9.480469 35.929688.00781-.46875.023438-.472657.039062-.46875.050781-.46875.070315-.460937.078125-.46875.101562-.460938.109376-.449218.117187-.460938.140625-.449219.152344-.441406.167968-.4375.179688-.433594.203125-.429687.207031-.417969.222656-.421875.476563-.796875.261719-.390625.28125-.390625.277344-.371094.300781-.371093.3125-.347657.308593-.351562.328126-.328125.339843-.332032.351563-.308593.359375-.300781.371093-.289063.378907-.28125.390625-.269531.398437-.25.402344-.238282.410156-.230468.417969-.222656.421875-.199219.429687-.1875.441407-.171875.4375-.160156.449219-.148438.453124-.132812.449219-.117188.460938-.101562.457031-.08984.472656-.07813.457032-.0625.472656-.03906.46875-.03125.46875-.01953h.472656l.46875.019528.46875.03125.472656.03906.457032.0625.472656.07813.457031.08984.460937.101562.449219.117188.460938.132812.441406.148438.4375.160156.441406.171875.429688.1875.429687.199219.410156.222656.410157.230468.410156.238282.390625.25.390625.269531.378906.28125.371094.289063.359375.300783.351562.308593.339844.332032.328125.328125.320313.351562.308594.347657.292968.371093.289063.371094.269531.390625.261719.390625.25.398437.226562.398438.222657.421875.210937.417969.199219.429687.179687.433594.167969.4375.152344.441406.140625.449219.128906.460938.109375.449218.08984.460938.08984.46875.05859.460937.05078.46875.03906.46875.02344.472657.0078.46875" fill="none" stroke="#fdbf6f" stroke-width="2.25"/><path d="m39.109375 45.191406v.230469l-.0078.226563-.02344.242187-.02734.230469-.03125.238281-.03906.230469-.05078.230468-.05859.230469-.0625.21875-.07031.230469-.07813.21875-.08203.222656-.08984.21875-.09766.210938-.101563.207031-.109374.210937-.121094.199219-.117188.203125-.132812.199219-.136719.1875-.140625.183594-.152344.1875-.160156.171875-.160156.179687-.328125.328125-.179688.152344-.359375.296875-.191426.140625-.191406.132812-.199219.128907-.199219.121093-.421875.21875-.207031.101563-.210938.09766-.21875.08203-.222656.08984-.230468.07031-.21875.05859-.230469.05859-.230469.0625-.230469.03906-.226562.03906-.242188.03125-.230469.01953-.230468.0078-.238282.01172h-.230468l-.238282-.01172-.230468-.0078-.242188-.01953-.230468-.03125-.226563-.03906-.230469-.03906-.230468-.0625-.460938-.117176-.21875-.07031-.222656-.08984-.21875-.08203-.210938-.09766-.21875-.101563-.199218-.109378-.210938-.109376-.199219-.121093-.199219-.128907-.191406-.132812-.191406-.140625-.1875-.148437-.179688-.148438-.171874-.152344-.167969-.167968-.171875-.160157-.160156-.179687-.148438-.171875-.152344-.1875-.140625-.183594-.136719-.1875-.132812-.199219-.117188-.203125-.121093-.199219-.109375-.210937-.101563-.207031-.09766-.210938-.09375-.21875-.08984-.222656-.06641-.21875-.07031-.230469-.07031-.21875-.101562-.460937-.03906-.230469-.03125-.238281-.03125-.230469-.01953-.242187-.0078-.226563v-.230469" fill="none" stroke="#fdbf6f" stroke-width="2.25"/><path d="m53.929688 45.191406-.01953.699219-.03125.699219-.05078.710937-.078128.699219-.101562.699219-.128907.691406-.140625.6875-.167968.691406-.179688.679688-.210938.671875-.230468.667968-.261719.652344-.269531.648438-.289063.648437-.308593.632813-.339844.617187-.351563.613281-.371093.597657-.386719.589843-.410157.570313-.429687.5625-.441406.546875-.460938.53125-.480469.519531-.5.5-.507812.492188-.519531.46875-.542969.449219-.558594.441406-.570312.417968-.578125.402344-.589844.378906-.613281.359376-.609375.339843-.628907.332031-.628906.296876-.652344.28125-.660156.261718-.660156.25-.667969.21875-.671875.191406-.6875.179688-.691406.160156-.691406.128906-.6875.109376-.699219.08984-.710937.07031-.699219.03906-.703125.01953h-.707032l-.703124-.01953-.707032-.03906-.703125-.07031-.699219-.08984-.699218-.109376-.691406-.128906-.6875-.160156-.679688-.179688-.671875-.191406-.667969-.21875-.671875-.25-.648437-.261718-.652344-.28125-.628906-.296876-.628906-.332031-.621094-.339843-.601563-.359376-.597656-.378906-.582031-.402344-.558594-.417968-.558594-.441406-.542968-.449219-.519532-.46875-.507812-.492188-.5-.5-.480469-.519531-.460937-.53125-.441407-.546875-.429687-.5625-.410156-.570313-.386719-.589843-.371094-.597657-.359375-.613281-.332031-.617187-.308594-.632813-.289063-.648437-.28125-.648438-.25-.652344-.230468-.667968-.210938-.671875-.1875-.679688-.160156-.691406-.152344-.6875-.117187-.691406-.101563-.699219-.082031-.699219-.046875-.710937-.042969-.699219-.007812-.699219" fill="none" stroke="#fdbf6f" stroke-width="2.25"/><path d="m5.78125 45.191406h7.410156v-9.261718h-7.410156zm0 0" fill="#f15a22" stroke="#fff" stroke-width=".01"/><path d="m13.191406 45.191406h7.410156v-9.261718h-7.410156zm0 0" fill="#da6fab" stroke="#fff" stroke-width=".01"/><path d="m20.589844 45.191406h7.410156v-9.261718h-7.410156zm0 0" fill="#f15a22" stroke="#fff" stroke-width=".01"/><path d="m28 45.191406h7.410156v-9.261718h-7.410156zm0 0" fill="#da6fab" stroke="#fff" stroke-width=".01"/><path d="m35.410156 45.191406h7.410156v-9.261718h-7.410156zm0 0" fill="#f15a22" stroke="#fff" stroke-width=".01"/><path d="m42.808594 45.191406h7.410156v-9.261718h-7.410156zm0 0" fill="#da6fab" stroke="#fff" stroke-width=".01"/><path d="m50.21875 45.191406h7.410156v-9.261718h-7.410156zm0 0" fill="#f15a22" stroke="#fff" stroke-width=".01"/></g><use fill="#fff" x="7.15" xlink:href="#a" y="31.6"/><use fill="#fff" x="14.72" xlink:href="#b" y="31.6"/><use fill="#fff" x="21.959999" xlink:href="#a" y="31.6"/><use fill="#fff" x="29.540001" xlink:href="#b" y="31.6"/><use fill="#fff" x="36.779999" xlink:href="#a" y="31.6"/><use fill="#fff" x="44.349998" xlink:href="#b" y="31.6"/><use fill="#fff" x="51.59" xlink:href="#a" y="31.6"/></g></svg>