<svg height="48.550781pt" viewBox="0 0 51.857655 48.550781" width="51.857655pt" xmlns="http://www.w3.org/2000/svg" xmlns:xlink="http://www.w3.org/1999/xlink"><defs><g id="a"><path d="m4.265625-2.359375h-1.75v.75h1c-.03125.25-.09375.40625-.21875.5625-.21875.265625-.5625.421875-.890625.421875-.734375 0-1.25-.640625-1.25-1.546875 0-.9375.453125-1.5 1.21875-1.5.3125 0 .578125.078125.78125.265625.125.09375.1875.203125.265625.4375h.84375c-.109375-.90625-.84375-1.484375-1.890625-1.484375-1.265625 0-2.125.9375-2.125 2.296875 0 1.328125.859375 2.296875 2.046875 2.296875.59375 0 .984375-.21875 1.328125-.703125l.09375.578125h.546875zm0 0"/></g><g id="b"><path d="m3.0625 0h.90625v-4.375h-.90625v2.984375l-1.734375-2.984375h-.921875v4.375h.90625v-3.03125zm0 0"/></g></defs><g transform="translate(-5.77625 -1.464844)"><g stroke-linecap="round" stroke-linejoin="round" stroke-miterlimit="10" transform="matrix(1 0 0 -1 0 70)"><path d="m24.300781 43.328125v-.226563l.0078-.242187.01953-.230469.03125-.230468.03125-.238282.03906-.230468.101562-.460938.07031-.21875.07031-.230469.06641-.21875.08984-.222656.09375-.21875.09766-.210937.101563-.207032.109375-.210937.121093-.199219.117188-.203125.132812-.199219.136719-.1875.140625-.191406.152344-.179688.148438-.179687.160156-.171875.171875-.167969.167969-.160156.171874-.152344.179688-.160156.1875-.136719.191406-.140625.191406-.128906.199219-.132813.199237-.117187.210938-.121094.199218-.101562.21875-.09766.210938-.101562.21875-.08984.222656-.08203.21875-.06641.230469-.07031.230469-.0625.230468-.05078.230469-.03906.226563-.039067.230468-.03125.242188-.01953.230468-.01953h.707032l.460937.03906.242188.03125.226562.03906.230469.03906.230469.05078.230469.0625.21875.07031.230468.06641.222656.08203.21875.08984.210938.101562.207031.09766.210938.101562.210937.121094.199219.117187.199219.132813.191406.128913.191406.140625.179688.136719.179687.160156.179688.152344.167969.160156.160156.167969.160156.171875.160156.179687.152344.179688.140625.191406.136719.1875.132812.199219.117188.203125.121094.199219.109374.210937.101563.207032.09766.210937.08984.21875.08203.222656.07813.21875.07031.230469.0625.21875.05859.230469.05078.230469.03906.230468.03125.238282.02734.230468.02344.230469.0078.242187v.226563" fill="none" stroke="#ff7f00" stroke-width="2.25"/><path d="m9.480469 43.328125.00781-.699219.042969-.707031.046875-.703125.082031-.699219.101563-.699219.117187-.691406.152344-.6875.160156-.691406.1875-.679688.210938-.671874.230468-.667969.25-.660157.28125-.648437.289063-.640625.308594-.632812.332031-.617188.359375-.609375.371094-.601563.386719-.589843.410156-.570313.429687-.558594.441407-.550781.460937-.53125.480471-.519531.5-.5.507812-.488281.519532-.472657.542968-.449218.558594-.441406.558594-.417969.582031-.402344.597656-.378906.601563-.359375.621094-.339844.628906-.328125.628906-.300781.652344-.28125.648437-.269532.671875-.242187.667969-.21875.671875-.199219.679688-.171875.6875-.160156.691406-.128906.699218-.109375.699219-.08984.703125-.07031.707032-.03906.703124-.03125h.707032l.703125.03125.699219.03906.710937.07031.699219.08984.6875.109375.691406.128906.691406.160156.6875.171875.671875.199219.667969.21875.660156.242187.660156.269532.652344.28125.628906.300781.628907.328125.609375.339844.613281.359375.589844.378906.578125.402344.570312.417969.558594.441406.542969.449218.519531.472657.507812.488281.5.5.480469.519531.460938.53125.441406.550781.429687.558594.410157.570313.386719.589843.371093.601563.351563.609375.339844.617188.308593.632812.289063.640625.269531.648437.261719.660157.230468.667969.210938.671874.179688.679688.167968.691406.140625.6875.128907.691406.101562.699219.07813.699219.05078.703125.03125.707031.01953.699219" fill="none" stroke="#ff7f00" stroke-width="2.25"/><path d="m53.929688 52.589844-.0078.46875-.02344.472656-.03906.46875-.05078.46875-.07031.460938-.07813.46875-.101562.460937-.109375.449219-.121094.460937-.136719.449219-.160156.441406-.171875.441406-.179687.429688-.191407.429688-.207031.417968-.222656.421875-.238282.398438-.25.402343-.261718.386719-.269532.390625-.277343.371094-.300781.371094-.3125.347656-.320313.351562-.328125.328126-.339844.332031-.351562.308593-.359375.300782-.371094.289062-.378906.28125-.378907.269532-.398437.25-.402344.242187-.410156.226563-.417969.222656-.421875.199218-.441406.191407-.429687.167969-.4375.160156-.449219.148437-.453125.132813-.457032.117187-.453124.101563-.46875.08984-.460938.08203-.46875.05859-.460938.03906-.46875.03125-.46875.01953h-.472656l-.46875-.01953-.46875-.03125-.472668-.039052-.46875-.058593-.460938-.08203-.460937-.08984-.457031-.101563-.460938-.117187-.449218-.132813-.441407-.148437-.449219-.160156-.429687-.167969-.429687-.191407-.429688-.199218-.421875-.222656-.410156-.226563-.398438-.242187-.402343-.25-.378907-.269532-.378906-.28125-.371094-.289067-.359375-.300782-.351562-.308593-.339844-.332031-.328125-.328126-.320313-.351562-.308593-.347656-.292969-.371094-.289062-.371094-.269532-.390625-.261718-.386719-.25-.402343-.226563-.398438-.230469-.421875-.210937-.417968-.191407-.429688-.179687-.429688-.167969-.441406-.152344-.441406-.140624-.449219-.128907-.460937-.109375-.449219-.101562-.460937-.07813-.46875-.05859-.460938-.0625-.46875-.03125-.46875-.02734-.472656v-.46875" fill="none" stroke="#ff7f00" stroke-width="2.25"/><path d="m39.109375 52.589844-.0078.46875-.02344.472656-.03906.46875-.05078.46875-.05859.460938-.08984.46875-.08984.460937-.109375.449219-.128906.460937-.140625.449219-.152344.441406-.167969.441406-.179687.429688-.199219.429688-.210937.417968-.222657.421875-.226562.398438-.25.402343-.261744.386719-.269531.390625-.289063.371094-.292968.371094-.308594.347656-.320313.351562-.328125.328126-.339844.332031-.351562.308593-.359375.300782-.371094.289062-.378906.28125-.390625.269532-.390625.25-.410156.242187-.410157.226563-.410156.222656-.429687.199218-.429688.191407-.441406.167969-.4375.160156-.441406.148437-.460938.132813-.449219.117187-.460937.101563-.457031.08984-.472656.08203-.457032.05859-.472656.03906-.46875.03125-.46875.01953h-.472656l-.46875-.01953-.46875-.03125-.472656-.03906-.457032-.05859-.472656-.08203-.457031-.08984-.460938-.101563-.449219-.117187-.453124-.132813-.449219-.148437-.4375-.160156-.441407-.167969-.429687-.191407-.421875-.199218-.417969-.222656-.410156-.226563-.402344-.242187-.398437-.25-.390625-.269532-.378907-.28125-.371093-.289062-.359375-.300782-.351563-.308593-.339843-.332031-.328126-.328126-.308593-.351562-.3125-.347656-.300781-.371094-.277344-.371094-.28125-.390625-.261719-.386719-.238281-.402343-.238282-.398438-.222656-.421875-.207031-.417968-.203125-.429688-.179688-.429688-.167968-.441406-.152344-.441406-.140625-.449219-.117187-.460937-.109376-.449219-.101562-.460937-.078125-.46875-.070313-.460938-.050781-.46875-.039062-.46875-.023438-.472656-.007812-.46875" fill="none" stroke="#ff7f00" stroke-width="2.25"/><path d="m5.78125 52.589844h7.410156v-9.261719h-7.410156zm0 0" fill="#f15a22" stroke="#fff" stroke-width=".01"/><path d="m13.191406 52.589844h7.410156v-9.261719h-7.410156zm0 0" fill="#da6fab" stroke="#fff" stroke-width=".01"/><path d="m20.589844 52.589844h7.410156v-9.261719h-7.410156zm0 0" fill="#f15a22" stroke="#fff" stroke-width=".01"/><path d="m28 52.589844h7.410156v-9.261719h-7.410156zm0 0" fill="#da6fab" stroke="#fff" stroke-width=".01"/><path d="m35.410156 52.589844h7.410156v-9.261719h-7.410156zm0 0" fill="#f15a22" stroke="#fff" stroke-width=".01"/><path d="m42.808594 52.589844h7.410156v-9.261719h-7.410156zm0 0" fill="#da6fab" stroke="#fff" stroke-width=".01"/><path d="m50.21875 52.589844h7.410156v-9.261719h-7.410156zm0 0" fill="#f15a22" stroke="#fff" stroke-width=".01"/></g><use fill="#fff" x="7.15" xlink:href="#a" y="24.190001"/><use fill="#fff" x="14.72" xlink:href="#b" y="24.190001"/><use fill="#fff" x="21.959999" xlink:href="#a" y="24.190001"/><use fill="#fff" x="29.540001" xlink:href="#b" y="24.190001"/><use fill="#fff" x="36.779999" xlink:href="#a" y="24.190001"/><use fill="#fff" x="44.349998" xlink:href="#b" y="24.190001"/><use fill="#fff" x="51.59" xlink:href="#a" y="24.190001"/></g></svg>