<svg height="413.788" width="309.702" xmlns="http://www.w3.org/2000/svg"><defs><marker id="a" markerHeight="6.4" markerUnits="strokeWidth" markerWidth="8" orient="auto" refX="7.6" refY="4.1"><path d="m.8 1.6 6.8 2.5L.8 6.4"/></marker></defs><path d="M7 381.276c0 93.22 295.702-44.668 295.702-137.888" fill="none" stroke="#000" stroke-width="3"/><path fill="none" marker-mid="url(#a)" stroke="#000" stroke-width="3" transform="translate(-130.888 -63.444)" d="M253.59 118.944v111.944 75.944"/><path fill="#969696" fill-opacity=".85" stroke="#969696" stroke-width="3" d="M231.995 327.653 187 381.276H87l44.995-53.623zM141.279 304.672 77 381.276H7l64.279-76.604zM222.702 243.388l-44.995 53.623h-100l44.995-53.623zM302.702 243.388l-64.279 76.604h-70l64.279-76.604zM231.995 139.765 187 193.388H87l44.995-53.623zM141.279 116.784 77 193.388H7l64.279-76.604zM222.702 55.5l-44.995 53.623h-100L122.702 55.5zM302.702 55.5l-64.279 76.604h-70L232.702 55.5z"/><path fill="none" stroke="#e23d28" stroke-width="3" d="M187 381.276H7M7 381.276l115.702-137.888M122.702 243.388h180M302.702 243.388 187 381.276M187 193.388H7M7 193.388 122.702 55.5M122.702 55.5h180M302.702 55.5 187 193.388"/><path d="M187 381.276C163.907 512.245 30.093 62.419 7 193.388" fill="none" stroke="#000" stroke-width="3"/><path fill="none" marker-mid="url(#a)" stroke="#000" stroke-width="3" transform="translate(-130.888 -63.444)" d="M433.59 306.832V194.888v-75.944"/><path fill="none" marker-mid="url(#a)" stroke="#000" stroke-width="3" transform="translate(-130.888 -63.444)" d="M317.888 256.832v111.944 75.944"/><path fill="none" marker-mid="url(#a)" stroke="#000" stroke-width="3" transform="translate(-130.888 -63.444)" d="M137.888 256.832v111.944 75.944"/><path d="M302.702 55.5c0-72-180-72-180 0" fill="none" stroke="#000" stroke-width="3"/><circle cx="187" cy="381.276" fill="#fff" r="6" stroke="#000" stroke-width="2"/><text fill="#969696" font-family="Arial, Helvetica" font-size="20" font-weight="bold" stroke="#969696" stroke-linejoin="round" stroke-width="2" style="text-anchor:middle" transform="skewX(-40)" x="456.714" y="359.785">A.G2</text><text fill="#fff" font-family="Arial, Helvetica" font-size="20" font-weight="bold" style="text-anchor:middle" transform="skewX(-40)" x="456.714" y="359.785">A.G2</text><circle cx="7" cy="381.276" fill="#fff" r="6" stroke="#000" stroke-width="2"/><text fill="#969696" font-family="Arial, Helvetica" font-size="20" font-weight="bold" stroke="#969696" stroke-linejoin="round" stroke-width="2" style="text-anchor:middle" transform="rotate(-50) skewX(40)" x="-447.72" y="281.329">A.G7</text><text fill="#fff" font-family="Arial, Helvetica" font-size="20" font-weight="bold" style="text-anchor:middle" transform="rotate(-50) skewX(40)" x="-447.72" y="281.329">A.G7</text><circle cx="122.702" cy="243.388" fill="#fff" r="6" stroke="#000" stroke-width="2"/><text fill="#969696" font-family="Arial, Helvetica" font-size="20" font-weight="bold" stroke="#969696" stroke-linejoin="round" stroke-width="2" style="text-anchor:middle" transform="skewX(-40)" x="376.714" y="275.52">A.G17</text><text fill="#fff" font-family="Arial, Helvetica" font-size="20" font-weight="bold" style="text-anchor:middle" transform="skewX(-40)" x="376.714" y="275.52">A.G17</text><circle cx="302.702" cy="243.388" fill="#fff" r="6" stroke="#000" stroke-width="2"/><text fill="#969696" font-family="Arial, Helvetica" font-size="20" font-weight="bold" stroke="#969696" stroke-linejoin="round" stroke-width="2" style="text-anchor:middle" transform="rotate(-50) skewX(40)" x="-367.72" y="365.594">A.G11</text><text fill="#fff" font-family="Arial, Helvetica" font-size="20" font-weight="bold" style="text-anchor:middle" transform="rotate(-50) skewX(40)" x="-367.72" y="365.594">A.G11</text><circle cx="187" cy="193.388" fill="#fff" r="6" stroke="#000" stroke-width="2"/><text fill="#969696" font-family="Arial, Helvetica" font-size="20" font-weight="bold" stroke="#969696" stroke-linejoin="round" stroke-width="2" style="text-anchor:middle" transform="skewX(-40)" x="299.057" y="171.897">A.G1</text><text fill="#fff" font-family="Arial, Helvetica" font-size="20" font-weight="bold" style="text-anchor:middle" transform="skewX(-40)" x="299.057" y="171.897">A.G1</text><circle cx="7" cy="193.388" fill="#fff" r="6" stroke="#000" stroke-width="2"/><text fill="#969696" font-family="Arial, Helvetica" font-size="20" font-weight="bold" stroke="#969696" stroke-linejoin="round" stroke-width="2" style="text-anchor:middle" transform="rotate(-50) skewX(40)" x="-202.45" y="160.557">A.G6</text><text fill="#fff" font-family="Arial, Helvetica" font-size="20" font-weight="bold" style="text-anchor:middle" transform="rotate(-50) skewX(40)" x="-202.45" y="160.557">A.G6</text><circle cx="122.702" cy="55.5" fill="#fff" r="6" stroke="#000" stroke-width="2"/><text fill="#969696" font-family="Arial, Helvetica" font-size="20" font-weight="bold" stroke="#969696" stroke-linejoin="round" stroke-width="2" style="text-anchor:middle" transform="skewX(-40)" x="219.057" y="87.632">A.G16</text><text fill="#fff" font-family="Arial, Helvetica" font-size="20" font-weight="bold" style="text-anchor:middle" transform="skewX(-40)" x="219.057" y="87.632">A.G16</text><circle cx="302.702" cy="55.5" fill="#fff" r="6" stroke="#000" stroke-width="2"/><text fill="#969696" font-family="Arial, Helvetica" font-size="20" font-weight="bold" stroke="#969696" stroke-linejoin="round" stroke-width="2" style="text-anchor:middle" transform="rotate(-50) skewX(40)" x="-122.45" y="244.822">A.G12</text><text fill="#fff" font-family="Arial, Helvetica" font-size="20" font-weight="bold" style="text-anchor:middle" transform="rotate(-50) skewX(40)" x="-122.45" y="244.822">A.G12</text><text font-family="Arial, Helvetica" font-size="24" font-weight="bold" stroke="#fff" stroke-linejoin="round" stroke-width="2" x="207" y="198.188">5&apos;</text><text font-family="Arial, Helvetica" font-size="24" font-weight="bold" x="207" y="198.188">5&apos;</text><text font-family="Arial, Helvetica" font-size="24" font-weight="bold" stroke="#fff" stroke-linejoin="round" stroke-width="2" style="text-anchor:end" x="102.702" y="248.188">3&apos;</text><text font-family="Arial, Helvetica" font-size="24" font-weight="bold" style="text-anchor:end" x="102.702" y="248.188">3&apos;</text></svg>