<svg height="368.115" width="373.866" xmlns="http://www.w3.org/2000/svg"><defs><marker id="a" markerHeight="6.4" markerUnits="strokeWidth" markerWidth="8" orient="auto" refX="7.6" refY="4.1"><path d="m.8 1.6 6.8 2.5L.8 6.4"/></marker></defs><path d="M334.854 213.573c-23.093 130.968-156.907-318.857-180-187.888M154.854 213.573c0 60.857 64.298 198.745 64.298 137.888" fill="none" stroke="#000" stroke-width="3"/><path fill="none" marker-mid="url(#a)" stroke="#000" stroke-width="3" transform="translate(-98.736 -93.26)" d="M253.59 118.944v111.944 75.944"/><path fill="#969696" fill-opacity=".85" stroke="#969696" stroke-width="3" d="m334.854 213.573-64.279 76.604h-70l64.28-76.604zM264.147 297.838l-44.995 53.623h-100l44.995-53.623zM173.431 274.856l-64.279 76.605h-70l64.28-76.605zM254.854 213.573l-44.995 53.623h-100l44.995-53.623zM334.854 25.685l-64.279 76.604h-70l64.28-76.604zM264.147 109.95l-44.995 53.623h-100l44.995-53.623zM173.431 86.968l-64.279 76.605h-70l64.28-76.605zM254.854 25.685 209.86 79.308h-100l44.995-53.623z"/><path fill="none" stroke="#e23d28" stroke-width="3" d="M334.854 213.573 219.152 351.46M219.152 351.46h-180M39.152 351.46l115.702-137.887M154.854 213.573h180M334.854 25.685 219.152 163.573M219.152 163.573h-180M39.152 163.573 154.854 25.685M154.854 25.685h180"/><path fill="none" marker-mid="url(#a)" stroke="#000" stroke-width="3" transform="translate(-98.736 -93.26)" d="M317.888 444.72V332.776v-75.944"/><path fill="none" marker-mid="url(#a)" stroke="#000" stroke-width="3" transform="translate(-98.736 -93.26)" d="M433.59 118.944v111.944 75.944"/><path d="M219.152 163.573c0-72-180-72-180 0" fill="none" stroke="#000" stroke-width="3"/><path fill="none" marker-mid="url(#a)" stroke="#000" stroke-width="3" transform="translate(-98.736 -93.26)" d="M137.888 256.832v111.944 75.944"/><circle cx="334.854" cy="213.573" fill="#fff" r="6" stroke="#000" stroke-width="2"/><text fill="#969696" font-family="Arial, Helvetica" font-size="20" font-weight="bold" stroke="#969696" stroke-linejoin="round" stroke-width="2" style="text-anchor:middle" transform="rotate(-50) skewX(40)" x="-328.799" y="371.059">A.G2</text><text fill="#fff" font-family="Arial, Helvetica" font-size="20" font-weight="bold" style="text-anchor:middle" transform="rotate(-50) skewX(40)" x="-328.799" y="371.059">A.G2</text><circle cx="219.152" cy="351.461" fill="#fff" r="6" stroke="#000" stroke-width="2"/><text fill="#969696" font-family="Arial, Helvetica" font-size="20" font-weight="bold" stroke="#969696" stroke-linejoin="round" stroke-width="2" style="text-anchor:middle" transform="skewX(-40)" x="463.848" y="329.97">A.G11</text><text fill="#fff" font-family="Arial, Helvetica" font-size="20" font-weight="bold" style="text-anchor:middle" transform="skewX(-40)" x="463.848" y="329.97">A.G11</text><circle cx="39.152" cy="351.461" fill="#fff" r="6" stroke="#000" stroke-width="2"/><text fill="#969696" font-family="Arial, Helvetica" font-size="20" font-weight="bold" stroke="#969696" stroke-linejoin="round" stroke-width="2" style="text-anchor:middle" transform="rotate(-50) skewX(40)" x="-408.799" y="286.795">A.G17</text><text fill="#fff" font-family="Arial, Helvetica" font-size="20" font-weight="bold" style="text-anchor:middle" transform="rotate(-50) skewX(40)" x="-408.799" y="286.795">A.G17</text><circle cx="154.854" cy="213.573" fill="#fff" r="6" stroke="#000" stroke-width="2"/><text fill="#969696" font-family="Arial, Helvetica" font-size="20" font-weight="bold" stroke="#969696" stroke-linejoin="round" stroke-width="2" style="text-anchor:middle" transform="skewX(-40)" x="383.848" y="245.705">A.G7</text><text fill="#fff" font-family="Arial, Helvetica" font-size="20" font-weight="bold" style="text-anchor:middle" transform="skewX(-40)" x="383.848" y="245.705">A.G7</text><circle cx="334.854" cy="25.685" fill="#fff" r="6" stroke="#000" stroke-width="2"/><text fill="#969696" font-family="Arial, Helvetica" font-size="20" font-weight="bold" stroke="#969696" stroke-linejoin="round" stroke-width="2" style="text-anchor:middle" transform="rotate(-50) skewX(40)" x="-83.529" y="250.287">A.G1</text><text fill="#fff" font-family="Arial, Helvetica" font-size="20" font-weight="bold" style="text-anchor:middle" transform="rotate(-50) skewX(40)" x="-83.529" y="250.287">A.G1</text><circle cx="219.152" cy="163.573" fill="#fff" r="6" stroke="#000" stroke-width="2"/><text fill="#969696" font-family="Arial, Helvetica" font-size="20" font-weight="bold" stroke="#969696" stroke-linejoin="round" stroke-width="2" style="text-anchor:middle" transform="skewX(-40)" x="306.192" y="142.082">A.G12</text><text fill="#fff" font-family="Arial, Helvetica" font-size="20" font-weight="bold" style="text-anchor:middle" transform="skewX(-40)" x="306.192" y="142.082">A.G12</text><circle cx="39.152" cy="163.573" fill="#fff" r="6" stroke="#000" stroke-width="2"/><text fill="#969696" font-family="Arial, Helvetica" font-size="20" font-weight="bold" stroke="#969696" stroke-linejoin="round" stroke-width="2" style="text-anchor:middle" transform="rotate(-50) skewX(40)" x="-163.529" y="166.022">A.G16</text><text fill="#fff" font-family="Arial, Helvetica" font-size="20" font-weight="bold" style="text-anchor:middle" transform="rotate(-50) skewX(40)" x="-163.529" y="166.022">A.G16</text><circle cx="154.854" cy="25.685" fill="#fff" r="6" stroke="#000" stroke-width="2"/><text fill="#969696" font-family="Arial, Helvetica" font-size="20" font-weight="bold" stroke="#969696" stroke-linejoin="round" stroke-width="2" style="text-anchor:middle" transform="skewX(-40)" x="226.192" y="57.817">A.G6</text><text fill="#fff" font-family="Arial, Helvetica" font-size="20" font-weight="bold" style="text-anchor:middle" transform="skewX(-40)" x="226.192" y="57.817">A.G6</text><text font-family="Arial, Helvetica" font-size="24" font-weight="bold" stroke="#fff" stroke-linejoin="round" stroke-width="2" x="354.854" y="30.485">5&apos;</text><text font-family="Arial, Helvetica" font-size="24" font-weight="bold" x="354.854" y="30.485">5&apos;</text><text font-family="Arial, Helvetica" font-size="24" font-weight="bold" stroke="#fff" stroke-linejoin="round" stroke-width="2" style="text-anchor:end" x="19.152" y="356.261">3&apos;</text><text font-family="Arial, Helvetica" font-size="24" font-weight="bold" style="text-anchor:end" x="19.152" y="356.261">3&apos;</text></svg>