<svg height="364.128" width="373.702" xmlns="http://www.w3.org/2000/svg"><defs><marker id="a" markerHeight="6.4" markerUnits="strokeWidth" markerWidth="8" orient="auto" refX="7.6" refY="4.1"><path d="m.8 1.6 6.8 2.5L.8 6.4"/></marker></defs><path d="M38.988 342.43c0 72 115.702-65.888 115.702-137.888" fill="none" stroke="#000" stroke-width="3"/><path fill="none" marker-mid="url(#a)" stroke="#000" stroke-width="3" transform="translate(-98.9 -102.29)" d="M253.59 306.832V194.888v-75.944"/><path d="M218.988 342.43c0 72 115.702-65.888 115.702-137.888" fill="none" stroke="#000" stroke-width="3"/><path fill="#969696" fill-opacity=".85" stroke="#969696" stroke-width="3" d="m173.267 265.826-64.279 76.604h-70l64.279-76.604zM254.69 204.542l-44.995 53.623h-100l44.995-53.623zM334.69 204.542l-64.279 76.604h-70l64.28-76.604zM263.983 288.807l-44.995 53.623h-100l44.995-53.623zM173.267 77.938l-64.279 76.604h-70l64.279-76.604zM254.69 16.654l-44.995 53.623h-100l44.995-53.623zM334.69 16.654l-64.279 76.604h-70l64.28-76.604zM263.983 100.919l-44.995 53.623h-100l44.995-53.623z"/><path fill="none" stroke="#e23d28" stroke-width="3" d="M38.988 342.43 154.69 204.542M154.69 204.542h180M334.69 204.542 218.988 342.43M218.988 342.43h-180M38.988 154.542 154.69 16.654M154.69 16.654h180M334.69 16.654 218.988 154.542M218.988 154.542h-180"/><path fill="none" marker-mid="url(#a)" stroke="#000" stroke-width="3" transform="translate(-98.9 -102.29)" d="M433.59 306.832V194.888v-75.944"/><path fill="none" marker-mid="url(#a)" stroke="#000" stroke-width="3" transform="translate(-98.9 -102.29)" d="M137.888 256.832v111.944 75.944"/><path d="M154.69 16.654c0-60.857 64.298 77.03 64.298 137.888" fill="none" stroke="#000" stroke-width="3"/><path fill="none" marker-mid="url(#a)" stroke="#000" stroke-width="3" transform="translate(-98.9 -102.29)" d="M317.888 256.832v111.944 75.944"/><circle cx="38.988" cy="342.43" fill="#fff" r="6" stroke="#000" stroke-width="2"/><text fill="#969696" font-family="Arial, Helvetica" font-size="20" font-weight="bold" stroke="#969696" stroke-linejoin="round" stroke-width="2" style="text-anchor:middle" transform="rotate(-50) skewX(40)" x="-397.011" y="280.864">A.G2</text><text fill="#fff" font-family="Arial, Helvetica" font-size="20" font-weight="bold" style="text-anchor:middle" transform="rotate(-50) skewX(40)" x="-397.011" y="280.864">A.G2</text><circle cx="154.69" cy="204.542" fill="#fff" r="6" stroke="#000" stroke-width="2"/><text fill="#969696" font-family="Arial, Helvetica" font-size="20" font-weight="bold" stroke="#969696" stroke-linejoin="round" stroke-width="2" style="text-anchor:middle" transform="skewX(-40)" x="376.107" y="236.674">A.G6</text><text fill="#fff" font-family="Arial, Helvetica" font-size="20" font-weight="bold" style="text-anchor:middle" transform="skewX(-40)" x="376.107" y="236.674">A.G6</text><circle cx="334.69" cy="204.542" fill="#fff" r="6" stroke="#000" stroke-width="2"/><text fill="#969696" font-family="Arial, Helvetica" font-size="20" font-weight="bold" stroke="#969696" stroke-linejoin="round" stroke-width="2" style="text-anchor:middle" transform="rotate(-50) skewX(40)" x="-317.011" y="365.129">A.G16</text><text fill="#fff" font-family="Arial, Helvetica" font-size="20" font-weight="bold" style="text-anchor:middle" transform="rotate(-50) skewX(40)" x="-317.011" y="365.129">A.G16</text><circle cx="218.988" cy="342.43" fill="#fff" r="6" stroke="#000" stroke-width="2"/><text fill="#969696" font-family="Arial, Helvetica" font-size="20" font-weight="bold" stroke="#969696" stroke-linejoin="round" stroke-width="2" style="text-anchor:middle" transform="skewX(-40)" x="456.107" y="320.939">A.G12</text><text fill="#fff" font-family="Arial, Helvetica" font-size="20" font-weight="bold" style="text-anchor:middle" transform="skewX(-40)" x="456.107" y="320.939">A.G12</text><circle cx="38.988" cy="154.542" fill="#fff" r="6" stroke="#000" stroke-width="2"/><text fill="#969696" font-family="Arial, Helvetica" font-size="20" font-weight="bold" stroke="#969696" stroke-linejoin="round" stroke-width="2" style="text-anchor:middle" transform="rotate(-50) skewX(40)" x="-151.74" y="160.092">A.G1</text><text fill="#fff" font-family="Arial, Helvetica" font-size="20" font-weight="bold" style="text-anchor:middle" transform="rotate(-50) skewX(40)" x="-151.74" y="160.092">A.G1</text><circle cx="154.69" cy="16.654" fill="#fff" r="6" stroke="#000" stroke-width="2"/><text fill="#969696" font-family="Arial, Helvetica" font-size="20" font-weight="bold" stroke="#969696" stroke-linejoin="round" stroke-width="2" style="text-anchor:middle" transform="skewX(-40)" x="218.45" y="48.786">A.G7</text><text fill="#fff" font-family="Arial, Helvetica" font-size="20" font-weight="bold" style="text-anchor:middle" transform="skewX(-40)" x="218.45" y="48.786">A.G7</text><circle cx="334.69" cy="16.654" fill="#fff" r="6" stroke="#000" stroke-width="2"/><text fill="#969696" font-family="Arial, Helvetica" font-size="20" font-weight="bold" stroke="#969696" stroke-linejoin="round" stroke-width="2" style="text-anchor:middle" transform="rotate(-50) skewX(40)" x="-71.74" y="244.357">A.G17</text><text fill="#fff" font-family="Arial, Helvetica" font-size="20" font-weight="bold" style="text-anchor:middle" transform="rotate(-50) skewX(40)" x="-71.74" y="244.357">A.G17</text><circle cx="218.988" cy="154.542" fill="#fff" r="6" stroke="#000" stroke-width="2"/><text fill="#969696" font-family="Arial, Helvetica" font-size="20" font-weight="bold" stroke="#969696" stroke-linejoin="round" stroke-width="2" style="text-anchor:middle" transform="skewX(-40)" x="298.45" y="133.051">A.G11</text><text fill="#fff" font-family="Arial, Helvetica" font-size="20" font-weight="bold" style="text-anchor:middle" transform="skewX(-40)" x="298.45" y="133.051">A.G11</text><text font-family="Arial, Helvetica" font-size="24" font-weight="bold" stroke="#fff" stroke-linejoin="round" stroke-width="2" style="text-anchor:end" x="18.988" y="159.342">5&apos;</text><text font-family="Arial, Helvetica" font-size="24" font-weight="bold" style="text-anchor:end" x="18.988" y="159.342">5&apos;</text><text font-family="Arial, Helvetica" font-size="24" font-weight="bold" stroke="#fff" stroke-linejoin="round" stroke-width="2" x="354.69" y="21.454">3&apos;</text><text font-family="Arial, Helvetica" font-size="24" font-weight="bold" x="354.69" y="21.454">3&apos;</text></svg>