<svg height="383.972" width="342.214" xmlns="http://www.w3.org/2000/svg"><defs><marker id="a" markerHeight="6.4" markerUnits="strokeWidth" markerWidth="8" orient="auto" refX="7.6" refY="4.1"><path d="m.8 1.6 6.8 2.5L.8 6.4"/></marker></defs><path d="M123.202 220.4c0 60.857 64.298 198.745 64.298 137.888" fill="none" stroke="#000" stroke-width="3"/><path fill="none" marker-mid="url(#a)" stroke="#000" stroke-width="3" transform="translate(-130.388 -86.432)" d="M253.59 118.944v111.944 75.944"/><path fill="#969696" fill-opacity=".85" stroke="#969696" stroke-width="3" d="m223.202 220.4-44.995 53.623h-100l44.995-53.623zM303.202 220.4l-64.279 76.604h-70l64.279-76.604zM232.495 304.665 187.5 358.288h-100l44.995-53.623zM141.779 281.683 77.5 358.288h-70l64.279-76.605zM223.202 32.512l-44.995 53.623h-100l44.995-53.623zM303.202 32.512l-64.279 76.604h-70l64.279-76.604zM232.495 116.777 187.5 170.4h-100l44.995-53.623zM141.779 93.795 77.5 170.4h-70l64.279-76.605z"/><path fill="none" stroke="#e23d28" stroke-width="3" d="M123.202 220.4h180M303.202 220.4 187.5 358.288M187.5 358.288H7.5M7.5 358.288 123.202 220.4M123.202 32.512h180M303.202 32.512 187.5 170.4M187.5 170.4H7.5M7.5 170.4 123.202 32.512"/><path fill="none" marker-mid="url(#a)" stroke="#000" stroke-width="3" transform="translate(-130.388 -86.432)" d="M317.888 444.72V332.776v-75.944"/><path fill="none" marker-mid="url(#a)" stroke="#000" stroke-width="3" transform="translate(-130.388 -86.432)" d="M137.888 444.72V332.776v-75.944"/><path fill="none" marker-mid="url(#a)" stroke="#000" stroke-width="3" transform="translate(-130.388 -86.432)" d="M433.59 118.944v111.944 75.944"/><path d="M187.5 170.4C164.407 39.43 30.593 489.256 7.5 358.288M7.5 170.4c0-93.22 295.702-231.108 295.702-137.888" fill="none" stroke="#000" stroke-width="3"/><circle cx="123.202" cy="220.4" fill="#fff" r="6" stroke="#000" stroke-width="2"/><text fill="#969696" font-family="Arial, Helvetica" font-size="20" font-weight="bold" stroke="#969696" stroke-linejoin="round" stroke-width="2" style="text-anchor:middle" transform="skewX(-40)" x="357.925" y="252.532">A.G2</text><text fill="#fff" font-family="Arial, Helvetica" font-size="20" font-weight="bold" style="text-anchor:middle" transform="skewX(-40)" x="357.925" y="252.532">A.G2</text><circle cx="303.202" cy="220.4" fill="#fff" r="6" stroke="#000" stroke-width="2"/><text fill="#969696" font-family="Arial, Helvetica" font-size="20" font-weight="bold" stroke="#969696" stroke-linejoin="round" stroke-width="2" style="text-anchor:middle" transform="rotate(-50) skewX(40)" x="-337.711" y="351.201">A.G17</text><text fill="#fff" font-family="Arial, Helvetica" font-size="20" font-weight="bold" style="text-anchor:middle" transform="rotate(-50) skewX(40)" x="-337.711" y="351.201">A.G17</text><circle cx="187.5" cy="358.288" fill="#fff" r="6" stroke="#000" stroke-width="2"/><text fill="#969696" font-family="Arial, Helvetica" font-size="20" font-weight="bold" stroke="#969696" stroke-linejoin="round" stroke-width="2" style="text-anchor:middle" transform="skewX(-40)" x="437.925" y="336.797">A.G6</text><text fill="#fff" font-family="Arial, Helvetica" font-size="20" font-weight="bold" style="text-anchor:middle" transform="skewX(-40)" x="437.925" y="336.797">A.G6</text><circle cx="7.5" cy="358.288" fill="#fff" r="6" stroke="#000" stroke-width="2"/><text fill="#969696" font-family="Arial, Helvetica" font-size="20" font-weight="bold" stroke="#969696" stroke-linejoin="round" stroke-width="2" style="text-anchor:middle" transform="rotate(-50) skewX(40)" x="-417.712" y="266.936">A.G11</text><text fill="#fff" font-family="Arial, Helvetica" font-size="20" font-weight="bold" style="text-anchor:middle" transform="rotate(-50) skewX(40)" x="-417.712" y="266.936">A.G11</text><circle cx="123.202" cy="32.512" fill="#fff" r="6" stroke="#000" stroke-width="2"/><text fill="#969696" font-family="Arial, Helvetica" font-size="20" font-weight="bold" stroke="#969696" stroke-linejoin="round" stroke-width="2" style="text-anchor:middle" transform="skewX(-40)" x="200.268" y="64.644">A.G1</text><text fill="#fff" font-family="Arial, Helvetica" font-size="20" font-weight="bold" style="text-anchor:middle" transform="skewX(-40)" x="200.268" y="64.644">A.G1</text><circle cx="303.202" cy="32.512" fill="#fff" r="6" stroke="#000" stroke-width="2"/><text fill="#969696" font-family="Arial, Helvetica" font-size="20" font-weight="bold" stroke="#969696" stroke-linejoin="round" stroke-width="2" style="text-anchor:middle" transform="rotate(-50) skewX(40)" x="-92.441" y="230.429">A.G16</text><text fill="#fff" font-family="Arial, Helvetica" font-size="20" font-weight="bold" style="text-anchor:middle" transform="rotate(-50) skewX(40)" x="-92.441" y="230.429">A.G16</text><circle cx="187.5" cy="170.4" fill="#fff" r="6" stroke="#000" stroke-width="2"/><text fill="#969696" font-family="Arial, Helvetica" font-size="20" font-weight="bold" stroke="#969696" stroke-linejoin="round" stroke-width="2" style="text-anchor:middle" transform="skewX(-40)" x="280.268" y="148.909">A.G7</text><text fill="#fff" font-family="Arial, Helvetica" font-size="20" font-weight="bold" style="text-anchor:middle" transform="skewX(-40)" x="280.268" y="148.909">A.G7</text><circle cx="7.5" cy="170.4" fill="#fff" r="6" stroke="#000" stroke-width="2"/><text fill="#969696" font-family="Arial, Helvetica" font-size="20" font-weight="bold" stroke="#969696" stroke-linejoin="round" stroke-width="2" style="text-anchor:middle" transform="rotate(-50) skewX(40)" x="-172.441" y="146.164">A.G12</text><text fill="#fff" font-family="Arial, Helvetica" font-size="20" font-weight="bold" style="text-anchor:middle" transform="rotate(-50) skewX(40)" x="-172.441" y="146.164">A.G12</text><text font-family="Arial, Helvetica" font-size="24" font-weight="bold" stroke="#fff" stroke-linejoin="round" stroke-width="2" style="text-anchor:end" x="103.202" y="37.312">5&apos;</text><text font-family="Arial, Helvetica" font-size="24" font-weight="bold" style="text-anchor:end" x="103.202" y="37.312">5&apos;</text><text font-family="Arial, Helvetica" font-size="24" font-weight="bold" stroke="#fff" stroke-linejoin="round" stroke-width="2" x="323.202" y="225.2">3&apos;</text><text font-family="Arial, Helvetica" font-size="24" font-weight="bold" x="323.202" y="225.2">3&apos;</text></svg>