<svg height="383.972" width="341.69" xmlns="http://www.w3.org/2000/svg"><defs><marker id="a" markerHeight="6.4" markerUnits="strokeWidth" markerWidth="8" orient="auto" refX="7.6" refY="4.1"><path d="m.8 1.6 6.8 2.5L.8 6.4"/></marker></defs><path d="M38.988 351.46c0 93.22 295.702-44.667 295.702-137.887" fill="none" stroke="#000" stroke-width="3"/><path fill="none" marker-mid="url(#a)" stroke="#000" stroke-width="3" transform="translate(-98.9 -93.26)" d="M253.59 306.832V194.888v-75.944"/><path d="M334.69 25.685c-23.093-130.969-156.907 318.856-180 187.888" fill="none" stroke="#000" stroke-width="3"/><path fill="#969696" fill-opacity=".85" stroke="#969696" stroke-width="3" d="m173.267 274.856-64.279 76.605h-70l64.279-76.605zM254.69 213.573l-44.995 53.623h-100l44.995-53.623zM334.69 213.573l-64.279 76.604h-70l64.28-76.604zM263.983 297.838l-44.995 53.623h-100l44.995-53.623zM173.267 86.968l-64.279 76.605h-70l64.279-76.605zM254.69 25.685l-44.995 53.623h-100l44.995-53.623zM334.69 25.685l-64.279 76.604h-70l64.28-76.604zM263.983 109.95l-44.995 53.623h-100l44.995-53.623z"/><path fill="none" stroke="#e23d28" stroke-width="3" d="M38.988 351.46 154.69 213.574M154.69 213.573h180M334.69 213.573 218.988 351.46M218.988 351.46h-180M38.988 163.573 154.69 25.685M154.69 25.685h180M334.69 25.685 218.988 163.573M218.988 163.573h-180"/><path fill="none" marker-mid="url(#a)" stroke="#000" stroke-width="3" transform="translate(-98.9 -93.26)" d="M433.59 306.832V194.888v-75.944"/><path fill="none" marker-mid="url(#a)" stroke="#000" stroke-width="3" transform="translate(-98.9 -93.26)" d="M137.888 256.832v111.944 75.944"/><path d="M154.69 25.685c0-60.857 64.298 77.03 64.298 137.888" fill="none" stroke="#000" stroke-width="3"/><path fill="none" marker-mid="url(#a)" stroke="#000" stroke-width="3" transform="translate(-98.9 -93.26)" d="M317.888 256.832v111.944 75.944"/><circle cx="38.988" cy="351.461" fill="#fff" r="6" stroke="#000" stroke-width="2"/><text fill="#969696" font-family="Arial, Helvetica" font-size="20" font-weight="bold" stroke="#969696" stroke-linejoin="round" stroke-width="2" style="text-anchor:middle" transform="rotate(-50) skewX(40)" x="-408.799" y="286.669">A.G2</text><text fill="#fff" font-family="Arial, Helvetica" font-size="20" font-weight="bold" style="text-anchor:middle" transform="rotate(-50) skewX(40)" x="-408.799" y="286.669">A.G2</text><circle cx="154.69" cy="213.573" fill="#fff" r="6" stroke="#000" stroke-width="2"/><text fill="#969696" font-family="Arial, Helvetica" font-size="20" font-weight="bold" stroke="#969696" stroke-linejoin="round" stroke-width="2" style="text-anchor:middle" transform="skewX(-40)" x="383.684" y="245.705">A.G11</text><text fill="#fff" font-family="Arial, Helvetica" font-size="20" font-weight="bold" style="text-anchor:middle" transform="skewX(-40)" x="383.684" y="245.705">A.G11</text><circle cx="334.69" cy="213.573" fill="#fff" r="6" stroke="#000" stroke-width="2"/><text fill="#969696" font-family="Arial, Helvetica" font-size="20" font-weight="bold" stroke="#969696" stroke-linejoin="round" stroke-width="2" style="text-anchor:middle" transform="rotate(-50) skewX(40)" x="-328.799" y="370.934">A.G6</text><text fill="#fff" font-family="Arial, Helvetica" font-size="20" font-weight="bold" style="text-anchor:middle" transform="rotate(-50) skewX(40)" x="-328.799" y="370.934">A.G6</text><circle cx="218.988" cy="351.461" fill="#fff" r="6" stroke="#000" stroke-width="2"/><text fill="#969696" font-family="Arial, Helvetica" font-size="20" font-weight="bold" stroke="#969696" stroke-linejoin="round" stroke-width="2" style="text-anchor:middle" transform="skewX(-40)" x="463.684" y="329.97">A.G17</text><text fill="#fff" font-family="Arial, Helvetica" font-size="20" font-weight="bold" style="text-anchor:middle" transform="skewX(-40)" x="463.684" y="329.97">A.G17</text><circle cx="38.988" cy="163.573" fill="#fff" r="6" stroke="#000" stroke-width="2"/><text fill="#969696" font-family="Arial, Helvetica" font-size="20" font-weight="bold" stroke="#969696" stroke-linejoin="round" stroke-width="2" style="text-anchor:middle" transform="rotate(-50) skewX(40)" x="-163.529" y="165.897">A.G1</text><text fill="#fff" font-family="Arial, Helvetica" font-size="20" font-weight="bold" style="text-anchor:middle" transform="rotate(-50) skewX(40)" x="-163.529" y="165.897">A.G1</text><circle cx="154.69" cy="25.685" fill="#fff" r="6" stroke="#000" stroke-width="2"/><text fill="#969696" font-family="Arial, Helvetica" font-size="20" font-weight="bold" stroke="#969696" stroke-linejoin="round" stroke-width="2" style="text-anchor:middle" transform="skewX(-40)" x="226.028" y="57.817">A.G12</text><text fill="#fff" font-family="Arial, Helvetica" font-size="20" font-weight="bold" style="text-anchor:middle" transform="skewX(-40)" x="226.028" y="57.817">A.G12</text><circle cx="334.69" cy="25.685" fill="#fff" r="6" stroke="#000" stroke-width="2"/><text fill="#969696" font-family="Arial, Helvetica" font-size="20" font-weight="bold" stroke="#969696" stroke-linejoin="round" stroke-width="2" style="text-anchor:middle" transform="rotate(-50) skewX(40)" x="-83.529" y="250.162">A.G7</text><text fill="#fff" font-family="Arial, Helvetica" font-size="20" font-weight="bold" style="text-anchor:middle" transform="rotate(-50) skewX(40)" x="-83.529" y="250.162">A.G7</text><circle cx="218.988" cy="163.573" fill="#fff" r="6" stroke="#000" stroke-width="2"/><text fill="#969696" font-family="Arial, Helvetica" font-size="20" font-weight="bold" stroke="#969696" stroke-linejoin="round" stroke-width="2" style="text-anchor:middle" transform="skewX(-40)" x="306.028" y="142.082">A.G16</text><text fill="#fff" font-family="Arial, Helvetica" font-size="20" font-weight="bold" style="text-anchor:middle" transform="skewX(-40)" x="306.028" y="142.082">A.G16</text><text font-family="Arial, Helvetica" font-size="24" font-weight="bold" stroke="#fff" stroke-linejoin="round" stroke-width="2" style="text-anchor:end" x="18.988" y="168.373">5&apos;</text><text font-family="Arial, Helvetica" font-size="24" font-weight="bold" style="text-anchor:end" x="18.988" y="168.373">5&apos;</text><text font-family="Arial, Helvetica" font-size="24" font-weight="bold" stroke="#fff" stroke-linejoin="round" stroke-width="2" x="238.988" y="356.261">3&apos;</text><text font-family="Arial, Helvetica" font-size="24" font-weight="bold" x="238.988" y="356.261">3&apos;</text></svg>