<svg height="383.972" width="309.702" xmlns="http://www.w3.org/2000/svg"><defs><marker id="a" markerHeight="6.4" markerUnits="strokeWidth" markerWidth="8" orient="auto" refX="7.6" refY="4.1"><path d="m.8 1.6 6.8 2.5L.8 6.4"/></marker></defs><path d="M122.702 220.4c0 72 180 72 180 0" fill="none" stroke="#000" stroke-width="3"/><path fill="none" marker-mid="url(#a)" stroke="#000" stroke-width="3" transform="translate(-130.888 -86.432)" d="M253.59 118.944v111.944 75.944"/><path fill="#969696" fill-opacity=".85" stroke="#969696" stroke-width="3" d="m222.702 220.4-44.995 53.623h-100l44.995-53.623zM302.702 220.4l-64.279 76.604h-70l64.279-76.604zM231.995 304.665 187 358.288H87l44.995-53.623zM141.279 281.683 77 358.288H7l64.279-76.605zM222.702 32.512l-44.995 53.623h-100l44.995-53.623zM302.702 32.512l-64.279 76.604h-70l64.279-76.604zM231.995 116.777 187 170.4H87l44.995-53.623zM141.279 93.795 77 170.4H7l64.279-76.605z"/><path fill="none" stroke="#e23d28" stroke-width="3" d="M122.702 220.4h180M302.702 220.4 187 358.288M187 358.288H7M7 358.288 122.702 220.4M122.702 32.512h180M302.702 32.512 187 170.4M187 170.4H7M7 170.4 122.702 32.512"/><path fill="none" marker-mid="url(#a)" stroke="#000" stroke-width="3" transform="translate(-130.888 -86.432)" d="M433.59 306.832V194.888v-75.944"/><path d="M7 358.288C30.093 489.256 163.907 39.43 187 170.4M302.702 32.512C302.702-60.708 7 77.18 7 170.4" fill="none" stroke="#000" stroke-width="3"/><path fill="none" marker-mid="url(#a)" stroke="#000" stroke-width="3" transform="translate(-130.888 -86.432)" d="M317.888 256.832v111.944 75.944"/><path fill="none" marker-mid="url(#a)" stroke="#000" stroke-width="3" transform="translate(-130.888 -86.432)" d="M137.888 256.832v111.944 75.944"/><circle cx="122.702" cy="220.4" fill="#fff" r="6" stroke="#000" stroke-width="2"/><text fill="#969696" font-family="Arial, Helvetica" font-size="20" font-weight="bold" stroke="#969696" stroke-linejoin="round" stroke-width="2" style="text-anchor:middle" transform="skewX(-40)" x="357.425" y="252.532">A.G2</text><text fill="#fff" font-family="Arial, Helvetica" font-size="20" font-weight="bold" style="text-anchor:middle" transform="skewX(-40)" x="357.425" y="252.532">A.G2</text><circle cx="302.702" cy="220.4" fill="#fff" r="6" stroke="#000" stroke-width="2"/><text fill="#969696" font-family="Arial, Helvetica" font-size="20" font-weight="bold" stroke="#969696" stroke-linejoin="round" stroke-width="2" style="text-anchor:middle" transform="rotate(-50) skewX(40)" x="-337.711" y="350.818">A.G6</text><text fill="#fff" font-family="Arial, Helvetica" font-size="20" font-weight="bold" style="text-anchor:middle" transform="rotate(-50) skewX(40)" x="-337.711" y="350.818">A.G6</text><circle cx="187" cy="358.288" fill="#fff" r="6" stroke="#000" stroke-width="2"/><text fill="#969696" font-family="Arial, Helvetica" font-size="20" font-weight="bold" stroke="#969696" stroke-linejoin="round" stroke-width="2" style="text-anchor:middle" transform="skewX(-40)" x="437.425" y="336.797">A.G17</text><text fill="#fff" font-family="Arial, Helvetica" font-size="20" font-weight="bold" style="text-anchor:middle" transform="skewX(-40)" x="437.425" y="336.797">A.G17</text><circle cx="7" cy="358.288" fill="#fff" r="6" stroke="#000" stroke-width="2"/><text fill="#969696" font-family="Arial, Helvetica" font-size="20" font-weight="bold" stroke="#969696" stroke-linejoin="round" stroke-width="2" style="text-anchor:middle" transform="rotate(-50) skewX(40)" x="-417.712" y="266.553">A.G12</text><text fill="#fff" font-family="Arial, Helvetica" font-size="20" font-weight="bold" style="text-anchor:middle" transform="rotate(-50) skewX(40)" x="-417.712" y="266.553">A.G12</text><circle cx="122.702" cy="32.512" fill="#fff" r="6" stroke="#000" stroke-width="2"/><text fill="#969696" font-family="Arial, Helvetica" font-size="20" font-weight="bold" stroke="#969696" stroke-linejoin="round" stroke-width="2" style="text-anchor:middle" transform="skewX(-40)" x="199.768" y="64.644">A.G1</text><text fill="#fff" font-family="Arial, Helvetica" font-size="20" font-weight="bold" style="text-anchor:middle" transform="skewX(-40)" x="199.768" y="64.644">A.G1</text><circle cx="302.702" cy="32.512" fill="#fff" r="6" stroke="#000" stroke-width="2"/><text fill="#969696" font-family="Arial, Helvetica" font-size="20" font-weight="bold" stroke="#969696" stroke-linejoin="round" stroke-width="2" style="text-anchor:middle" transform="rotate(-50) skewX(40)" x="-92.441" y="230.046">A.G7</text><text fill="#fff" font-family="Arial, Helvetica" font-size="20" font-weight="bold" style="text-anchor:middle" transform="rotate(-50) skewX(40)" x="-92.441" y="230.046">A.G7</text><circle cx="187" cy="170.4" fill="#fff" r="6" stroke="#000" stroke-width="2"/><text fill="#969696" font-family="Arial, Helvetica" font-size="20" font-weight="bold" stroke="#969696" stroke-linejoin="round" stroke-width="2" style="text-anchor:middle" transform="skewX(-40)" x="279.768" y="148.909">A.G16</text><text fill="#fff" font-family="Arial, Helvetica" font-size="20" font-weight="bold" style="text-anchor:middle" transform="skewX(-40)" x="279.768" y="148.909">A.G16</text><circle cx="7" cy="170.4" fill="#fff" r="6" stroke="#000" stroke-width="2"/><text fill="#969696" font-family="Arial, Helvetica" font-size="20" font-weight="bold" stroke="#969696" stroke-linejoin="round" stroke-width="2" style="text-anchor:middle" transform="rotate(-50) skewX(40)" x="-172.441" y="145.781">A.G11</text><text fill="#fff" font-family="Arial, Helvetica" font-size="20" font-weight="bold" style="text-anchor:middle" transform="rotate(-50) skewX(40)" x="-172.441" y="145.781">A.G11</text><text font-family="Arial, Helvetica" font-size="24" font-weight="bold" stroke="#fff" stroke-linejoin="round" stroke-width="2" style="text-anchor:end" x="102.702" y="37.312">5&apos;</text><text font-family="Arial, Helvetica" font-size="24" font-weight="bold" style="text-anchor:end" x="102.702" y="37.312">5&apos;</text><text font-family="Arial, Helvetica" font-size="24" font-weight="bold" stroke="#fff" stroke-linejoin="round" stroke-width="2" x="207" y="363.088">3&apos;</text><text font-family="Arial, Helvetica" font-size="24" font-weight="bold" x="207" y="363.088">3&apos;</text></svg>