<svg height="364.911" width="341.714" xmlns="http://www.w3.org/2000/svg"><defs><marker id="a" markerHeight="6.4" markerUnits="strokeWidth" markerWidth="8" orient="auto" refX="7.6" refY="4.1"><path d="m.8 1.6 6.8 2.5L.8 6.4"/></marker></defs><path d="M122.702 201.338C111.515 264.781 18.187 87.895 7 151.338M187 339.226c0 72 115.702-65.888 115.702-137.888" fill="none" stroke="#000" stroke-width="3"/><path fill="none" marker-mid="url(#a)" stroke="#000" stroke-width="3" transform="translate(-130.888 -105.494)" d="M253.59 118.944v111.944 75.944"/><path fill="#969696" fill-opacity=".85" stroke="#969696" stroke-width="3" d="m222.702 201.338-44.995 53.623h-100l44.995-53.623zM302.702 201.338l-64.279 76.604h-70l64.279-76.604zM231.995 285.603 187 339.226H87l44.995-53.623zM141.279 262.622 77 339.226H7l64.279-76.604zM222.702 13.45l-44.995 53.623h-100l44.995-53.623zM302.702 13.45l-64.279 76.604h-70l64.279-76.604zM231.995 97.715 187 151.338H87l44.995-53.623zM141.279 74.734 77 151.338H7l64.279-76.604z"/><path fill="none" stroke="#e23d28" stroke-width="3" d="M122.702 201.338h180M302.702 201.338 187 339.226M187 339.226H7M7 339.226l115.702-137.888M122.702 13.45h180M302.702 13.45 187 151.338M187 151.338H7M7 151.338 122.702 13.45"/><path fill="none" marker-mid="url(#a)" stroke="#000" stroke-width="3" transform="translate(-130.888 -105.494)" d="M433.59 306.832V194.888v-75.944"/><path d="M7 339.226C30.093 470.195 163.907 20.369 187 151.338" fill="none" stroke="#000" stroke-width="3"/><path fill="none" marker-mid="url(#a)" stroke="#000" stroke-width="3" transform="translate(-130.888 -105.494)" d="M317.888 256.832v111.944 75.944"/><path fill="none" marker-mid="url(#a)" stroke="#000" stroke-width="3" transform="translate(-130.888 -105.494)" d="M137.888 256.832v111.944 75.944"/><circle cx="122.702" cy="201.338" fill="#fff" r="6" stroke="#000" stroke-width="2"/><text fill="#969696" font-family="Arial, Helvetica" font-size="20" font-weight="bold" stroke="#969696" stroke-linejoin="round" stroke-width="2" style="text-anchor:middle" transform="skewX(-40)" x="341.43" y="233.47">A.G2</text><text fill="#fff" font-family="Arial, Helvetica" font-size="20" font-weight="bold" style="text-anchor:middle" transform="skewX(-40)" x="341.43" y="233.47">A.G2</text><circle cx="302.702" cy="201.338" fill="#fff" r="6" stroke="#000" stroke-width="2"/><text fill="#969696" font-family="Arial, Helvetica" font-size="20" font-weight="bold" stroke="#969696" stroke-linejoin="round" stroke-width="2" style="text-anchor:middle" transform="rotate(-50) skewX(40)" x="-312.828" y="338.565">A.G16</text><text fill="#fff" font-family="Arial, Helvetica" font-size="20" font-weight="bold" style="text-anchor:middle" transform="rotate(-50) skewX(40)" x="-312.828" y="338.565">A.G16</text><circle cx="187" cy="339.226" fill="#fff" r="6" stroke="#000" stroke-width="2"/><text fill="#969696" font-family="Arial, Helvetica" font-size="20" font-weight="bold" stroke="#969696" stroke-linejoin="round" stroke-width="2" style="text-anchor:middle" transform="skewX(-40)" x="421.43" y="317.735">A.G12</text><text fill="#fff" font-family="Arial, Helvetica" font-size="20" font-weight="bold" style="text-anchor:middle" transform="skewX(-40)" x="421.43" y="317.735">A.G12</text><circle cx="7" cy="339.226" fill="#fff" r="6" stroke="#000" stroke-width="2"/><text fill="#969696" font-family="Arial, Helvetica" font-size="20" font-weight="bold" stroke="#969696" stroke-linejoin="round" stroke-width="2" style="text-anchor:middle" transform="rotate(-50) skewX(40)" x="-392.828" y="254.3">A.G7</text><text fill="#fff" font-family="Arial, Helvetica" font-size="20" font-weight="bold" style="text-anchor:middle" transform="rotate(-50) skewX(40)" x="-392.828" y="254.3">A.G7</text><circle cx="122.702" cy="13.45" fill="#fff" r="6" stroke="#000" stroke-width="2"/><text fill="#969696" font-family="Arial, Helvetica" font-size="20" font-weight="bold" stroke="#969696" stroke-linejoin="round" stroke-width="2" style="text-anchor:middle" transform="skewX(-40)" x="183.773" y="45.582">A.G1</text><text fill="#fff" font-family="Arial, Helvetica" font-size="20" font-weight="bold" style="text-anchor:middle" transform="skewX(-40)" x="183.773" y="45.582">A.G1</text><circle cx="302.702" cy="13.45" fill="#fff" r="6" stroke="#000" stroke-width="2"/><text fill="#969696" font-family="Arial, Helvetica" font-size="20" font-weight="bold" stroke="#969696" stroke-linejoin="round" stroke-width="2" style="text-anchor:middle" transform="rotate(-50) skewX(40)" x="-67.558" y="217.793">A.G17</text><text fill="#fff" font-family="Arial, Helvetica" font-size="20" font-weight="bold" style="text-anchor:middle" transform="rotate(-50) skewX(40)" x="-67.558" y="217.793">A.G17</text><circle cx="187" cy="151.338" fill="#fff" r="6" stroke="#000" stroke-width="2"/><text fill="#969696" font-family="Arial, Helvetica" font-size="20" font-weight="bold" stroke="#969696" stroke-linejoin="round" stroke-width="2" style="text-anchor:middle" transform="skewX(-40)" x="263.773" y="129.847">A.G11</text><text fill="#fff" font-family="Arial, Helvetica" font-size="20" font-weight="bold" style="text-anchor:middle" transform="skewX(-40)" x="263.773" y="129.847">A.G11</text><circle cx="7" cy="151.338" fill="#fff" r="6" stroke="#000" stroke-width="2"/><text fill="#969696" font-family="Arial, Helvetica" font-size="20" font-weight="bold" stroke="#969696" stroke-linejoin="round" stroke-width="2" style="text-anchor:middle" transform="rotate(-50) skewX(40)" x="-147.558" y="133.528">A.G6</text><text fill="#fff" font-family="Arial, Helvetica" font-size="20" font-weight="bold" style="text-anchor:middle" transform="rotate(-50) skewX(40)" x="-147.558" y="133.528">A.G6</text><text font-family="Arial, Helvetica" font-size="24" font-weight="bold" stroke="#fff" stroke-linejoin="round" stroke-width="2" style="text-anchor:end" x="102.702" y="18.25">5&apos;</text><text font-family="Arial, Helvetica" font-size="24" font-weight="bold" style="text-anchor:end" x="102.702" y="18.25">5&apos;</text><text font-family="Arial, Helvetica" font-size="24" font-weight="bold" stroke="#fff" stroke-linejoin="round" stroke-width="2" x="322.702" y="18.25">3&apos;</text><text font-family="Arial, Helvetica" font-size="24" font-weight="bold" x="322.702" y="18.25">3&apos;</text></svg>