<svg height="386.692" width="341.69" xmlns="http://www.w3.org/2000/svg"><defs><marker id="a" markerHeight="6.4" markerUnits="strokeWidth" markerWidth="8" orient="auto" refX="7.6" refY="4.1"><path d="m.8 1.6 6.8 2.5L.8 6.4"/></marker></defs><path d="M38.988 356.234C69.671 530.247 124.007-143.555 154.69 30.458M154.69 218.346c0 72 180 72 180 0" fill="none" stroke="#000" stroke-width="3"/><path fill="none" marker-mid="url(#a)" stroke="#000" stroke-width="3" transform="translate(-98.9 -88.486)" d="M253.59 118.944v111.944 75.944"/><path fill="#969696" fill-opacity=".85" stroke="#969696" stroke-width="3" d="m173.267 279.63-64.279 76.604h-70l64.279-76.604zM254.69 218.346l-44.995 53.623h-100l44.995-53.623zM334.69 218.346l-64.279 76.604h-70l64.28-76.604zM263.983 302.61l-44.995 53.624h-100l44.995-53.623zM173.267 91.742l-64.279 76.604h-70l64.279-76.604zM254.69 30.458l-44.995 53.623h-100l44.995-53.623zM334.69 30.458l-64.279 76.604h-70l64.28-76.604zM263.983 114.723l-44.995 53.623h-100l44.995-53.623z"/><path fill="none" stroke="#e23d28" stroke-width="3" d="M38.988 356.234 154.69 218.346M154.69 218.346h180M334.69 218.346 218.988 356.234M218.988 356.234h-180M38.988 168.346 154.69 30.458M154.69 30.458h180M334.69 30.458 218.988 168.346M218.988 168.346h-180"/><path fill="none" marker-mid="url(#a)" stroke="#000" stroke-width="3" transform="translate(-98.9 -88.486)" d="M433.59 306.832V194.888v-75.944"/><path fill="none" marker-mid="url(#a)" stroke="#000" stroke-width="3" transform="translate(-98.9 -88.486)" d="M317.888 444.72V332.776v-75.944"/><path fill="none" marker-mid="url(#a)" stroke="#000" stroke-width="3" transform="translate(-98.9 -88.486)" d="M137.888 256.832v111.944 75.944"/><path d="M334.69 30.458c-30.683-174.013-85.019 499.789-115.702 325.776" fill="none" stroke="#000" stroke-width="3"/><circle cx="38.988" cy="356.234" fill="#fff" r="6" stroke="#000" stroke-width="2"/><text fill="#969696" font-family="Arial, Helvetica" font-size="20" font-weight="bold" stroke="#969696" stroke-linejoin="round" stroke-width="2" style="text-anchor:middle" transform="rotate(-50) skewX(40)" x="-415.03" y="289.737">A.G2</text><text fill="#fff" font-family="Arial, Helvetica" font-size="20" font-weight="bold" style="text-anchor:middle" transform="rotate(-50) skewX(40)" x="-415.03" y="289.737">A.G2</text><circle cx="154.69" cy="218.346" fill="#fff" r="6" stroke="#000" stroke-width="2"/><text fill="#969696" font-family="Arial, Helvetica" font-size="20" font-weight="bold" stroke="#969696" stroke-linejoin="round" stroke-width="2" style="text-anchor:middle" transform="skewX(-40)" x="387.69" y="250.478">A.G7</text><text fill="#fff" font-family="Arial, Helvetica" font-size="20" font-weight="bold" style="text-anchor:middle" transform="skewX(-40)" x="387.69" y="250.478">A.G7</text><circle cx="334.69" cy="218.346" fill="#fff" r="6" stroke="#000" stroke-width="2"/><text fill="#969696" font-family="Arial, Helvetica" font-size="20" font-weight="bold" stroke="#969696" stroke-linejoin="round" stroke-width="2" style="text-anchor:middle" transform="rotate(-50) skewX(40)" x="-335.03" y="374.002">A.G11</text><text fill="#fff" font-family="Arial, Helvetica" font-size="20" font-weight="bold" style="text-anchor:middle" transform="rotate(-50) skewX(40)" x="-335.03" y="374.002">A.G11</text><circle cx="218.988" cy="356.234" fill="#fff" r="6" stroke="#000" stroke-width="2"/><text fill="#969696" font-family="Arial, Helvetica" font-size="20" font-weight="bold" stroke="#969696" stroke-linejoin="round" stroke-width="2" style="text-anchor:middle" transform="skewX(-40)" x="467.69" y="334.743">A.G16</text><text fill="#fff" font-family="Arial, Helvetica" font-size="20" font-weight="bold" style="text-anchor:middle" transform="skewX(-40)" x="467.69" y="334.743">A.G16</text><circle cx="38.988" cy="168.346" fill="#fff" r="6" stroke="#000" stroke-width="2"/><text fill="#969696" font-family="Arial, Helvetica" font-size="20" font-weight="bold" stroke="#969696" stroke-linejoin="round" stroke-width="2" style="text-anchor:middle" transform="rotate(-50) skewX(40)" x="-169.76" y="168.965">A.G1</text><text fill="#fff" font-family="Arial, Helvetica" font-size="20" font-weight="bold" style="text-anchor:middle" transform="rotate(-50) skewX(40)" x="-169.76" y="168.965">A.G1</text><circle cx="154.69" cy="30.458" fill="#fff" r="6" stroke="#000" stroke-width="2"/><text fill="#969696" font-family="Arial, Helvetica" font-size="20" font-weight="bold" stroke="#969696" stroke-linejoin="round" stroke-width="2" style="text-anchor:middle" transform="skewX(-40)" x="230.033" y="62.59">A.G6</text><text fill="#fff" font-family="Arial, Helvetica" font-size="20" font-weight="bold" style="text-anchor:middle" transform="skewX(-40)" x="230.033" y="62.59">A.G6</text><circle cx="334.69" cy="30.458" fill="#fff" r="6" stroke="#000" stroke-width="2"/><text fill="#969696" font-family="Arial, Helvetica" font-size="20" font-weight="bold" stroke="#969696" stroke-linejoin="round" stroke-width="2" style="text-anchor:middle" transform="rotate(-50) skewX(40)" x="-89.76" y="253.23">A.G12</text><text fill="#fff" font-family="Arial, Helvetica" font-size="20" font-weight="bold" style="text-anchor:middle" transform="rotate(-50) skewX(40)" x="-89.76" y="253.23">A.G12</text><circle cx="218.988" cy="168.346" fill="#fff" r="6" stroke="#000" stroke-width="2"/><text fill="#969696" font-family="Arial, Helvetica" font-size="20" font-weight="bold" stroke="#969696" stroke-linejoin="round" stroke-width="2" style="text-anchor:middle" transform="skewX(-40)" x="310.033" y="146.855">A.G17</text><text fill="#fff" font-family="Arial, Helvetica" font-size="20" font-weight="bold" style="text-anchor:middle" transform="skewX(-40)" x="310.033" y="146.855">A.G17</text><text font-family="Arial, Helvetica" font-size="24" font-weight="bold" stroke="#fff" stroke-linejoin="round" stroke-width="2" style="text-anchor:end" x="18.988" y="173.146">5&apos;</text><text font-family="Arial, Helvetica" font-size="24" font-weight="bold" style="text-anchor:end" x="18.988" y="173.146">5&apos;</text><text font-family="Arial, Helvetica" font-size="24" font-weight="bold" stroke="#fff" stroke-linejoin="round" stroke-width="2" x="238.988" y="173.146">3&apos;</text><text font-family="Arial, Helvetica" font-size="24" font-weight="bold" x="238.988" y="173.146">3&apos;</text></svg>