<svg height="388.746" width="309.702" xmlns="http://www.w3.org/2000/svg"><defs><marker id="a" markerHeight="6.4" markerUnits="strokeWidth" markerWidth="8" orient="auto" refX="7.6" refY="4.1"><path d="m.8 1.6 6.8 2.5L.8 6.4"/></marker></defs><path d="M122.702 218.346C111.515 281.789 18.187 104.903 7 168.346M7 356.234c0 93.22 295.702-44.668 295.702-137.888" fill="none" stroke="#000" stroke-width="3"/><path fill="none" marker-mid="url(#a)" stroke="#000" stroke-width="3" transform="translate(-130.888 -88.486)" d="M253.59 118.944v111.944 75.944"/><path fill="#969696" fill-opacity=".85" stroke="#969696" stroke-width="3" d="m222.702 218.346-44.995 53.623h-100l44.995-53.623zM302.702 218.346l-64.279 76.604h-70l64.279-76.604zM231.995 302.61 187 356.235H87l44.995-53.623zM141.279 279.63 77 356.234H7l64.279-76.604zM222.702 30.458l-44.995 53.623h-100l44.995-53.623zM302.702 30.458l-64.279 76.604h-70l64.279-76.604zM231.995 114.723 187 168.346H87l44.995-53.623zM141.279 91.742 77 168.346H7l64.279-76.604z"/><path fill="none" stroke="#e23d28" stroke-width="3" d="M122.702 218.346h180M302.702 218.346 187 356.234M187 356.234H7M7 356.234l115.702-137.888M122.702 30.458h180M302.702 30.458 187 168.346M187 168.346H7M7 168.346 122.702 30.458"/><path fill="none" marker-mid="url(#a)" stroke="#000" stroke-width="3" transform="translate(-130.888 -88.486)" d="M433.59 306.832V194.888v-75.944"/><path fill="none" marker-mid="url(#a)" stroke="#000" stroke-width="3" transform="translate(-130.888 -88.486)" d="M317.888 444.72V332.776v-75.944"/><path d="M302.702 30.458C272.019-143.555 217.683 530.247 187 356.234" fill="none" stroke="#000" stroke-width="3"/><path fill="none" marker-mid="url(#a)" stroke="#000" stroke-width="3" transform="translate(-130.888 -88.486)" d="M137.888 256.832v111.944 75.944"/><circle cx="122.702" cy="218.346" fill="#fff" r="6" stroke="#000" stroke-width="2"/><text fill="#969696" font-family="Arial, Helvetica" font-size="20" font-weight="bold" stroke="#969696" stroke-linejoin="round" stroke-width="2" style="text-anchor:middle" transform="skewX(-40)" x="355.701" y="250.478">A.G2</text><text fill="#fff" font-family="Arial, Helvetica" font-size="20" font-weight="bold" style="text-anchor:middle" transform="skewX(-40)" x="355.701" y="250.478">A.G2</text><circle cx="302.702" cy="218.346" fill="#fff" r="6" stroke="#000" stroke-width="2"/><text fill="#969696" font-family="Arial, Helvetica" font-size="20" font-weight="bold" stroke="#969696" stroke-linejoin="round" stroke-width="2" style="text-anchor:middle" transform="rotate(-50) skewX(40)" x="-335.03" y="349.498">A.G11</text><text fill="#fff" font-family="Arial, Helvetica" font-size="20" font-weight="bold" style="text-anchor:middle" transform="rotate(-50) skewX(40)" x="-335.03" y="349.498">A.G11</text><circle cx="187" cy="356.234" fill="#fff" r="6" stroke="#000" stroke-width="2"/><text fill="#969696" font-family="Arial, Helvetica" font-size="20" font-weight="bold" stroke="#969696" stroke-linejoin="round" stroke-width="2" style="text-anchor:middle" transform="skewX(-40)" x="435.701" y="334.743">A.G16</text><text fill="#fff" font-family="Arial, Helvetica" font-size="20" font-weight="bold" style="text-anchor:middle" transform="skewX(-40)" x="435.701" y="334.743">A.G16</text><circle cx="7" cy="356.234" fill="#fff" r="6" stroke="#000" stroke-width="2"/><text fill="#969696" font-family="Arial, Helvetica" font-size="20" font-weight="bold" stroke="#969696" stroke-linejoin="round" stroke-width="2" style="text-anchor:middle" transform="rotate(-50) skewX(40)" x="-415.03" y="265.233">A.G7</text><text fill="#fff" font-family="Arial, Helvetica" font-size="20" font-weight="bold" style="text-anchor:middle" transform="rotate(-50) skewX(40)" x="-415.03" y="265.233">A.G7</text><circle cx="122.702" cy="30.458" fill="#fff" r="6" stroke="#000" stroke-width="2"/><text fill="#969696" font-family="Arial, Helvetica" font-size="20" font-weight="bold" stroke="#969696" stroke-linejoin="round" stroke-width="2" style="text-anchor:middle" transform="skewX(-40)" x="198.045" y="62.59">A.G1</text><text fill="#fff" font-family="Arial, Helvetica" font-size="20" font-weight="bold" style="text-anchor:middle" transform="skewX(-40)" x="198.045" y="62.59">A.G1</text><circle cx="302.702" cy="30.458" fill="#fff" r="6" stroke="#000" stroke-width="2"/><text fill="#969696" font-family="Arial, Helvetica" font-size="20" font-weight="bold" stroke="#969696" stroke-linejoin="round" stroke-width="2" style="text-anchor:middle" transform="rotate(-50) skewX(40)" x="-89.76" y="228.725">A.G12</text><text fill="#fff" font-family="Arial, Helvetica" font-size="20" font-weight="bold" style="text-anchor:middle" transform="rotate(-50) skewX(40)" x="-89.76" y="228.725">A.G12</text><circle cx="187" cy="168.346" fill="#fff" r="6" stroke="#000" stroke-width="2"/><text fill="#969696" font-family="Arial, Helvetica" font-size="20" font-weight="bold" stroke="#969696" stroke-linejoin="round" stroke-width="2" style="text-anchor:middle" transform="skewX(-40)" x="278.045" y="146.855">A.G17</text><text fill="#fff" font-family="Arial, Helvetica" font-size="20" font-weight="bold" style="text-anchor:middle" transform="skewX(-40)" x="278.045" y="146.855">A.G17</text><circle cx="7" cy="168.346" fill="#fff" r="6" stroke="#000" stroke-width="2"/><text fill="#969696" font-family="Arial, Helvetica" font-size="20" font-weight="bold" stroke="#969696" stroke-linejoin="round" stroke-width="2" style="text-anchor:middle" transform="rotate(-50) skewX(40)" x="-169.76" y="144.461">A.G6</text><text fill="#fff" font-family="Arial, Helvetica" font-size="20" font-weight="bold" style="text-anchor:middle" transform="rotate(-50) skewX(40)" x="-169.76" y="144.461">A.G6</text><text font-family="Arial, Helvetica" font-size="24" font-weight="bold" stroke="#fff" stroke-linejoin="round" stroke-width="2" style="text-anchor:end" x="102.702" y="35.258">5&apos;</text><text font-family="Arial, Helvetica" font-size="24" font-weight="bold" style="text-anchor:end" x="102.702" y="35.258">5&apos;</text><text font-family="Arial, Helvetica" font-size="24" font-weight="bold" stroke="#fff" stroke-linejoin="round" stroke-width="2" x="207" y="173.146">3&apos;</text><text font-family="Arial, Helvetica" font-size="24" font-weight="bold" x="207" y="173.146">3&apos;</text></svg>