<svg height="402.974" width="342.19" xmlns="http://www.w3.org/2000/svg"><defs><marker id="a" markerHeight="6.4" markerUnits="strokeWidth" markerWidth="8" orient="auto" refX="7.6" refY="4.1"><path d="m.8 1.6 6.8 2.5L.8 6.4"/></marker></defs><path d="M38.988 381.276c0 72 115.702-65.888 115.702-137.888" fill="none" stroke="#000" stroke-width="3"/><path fill="none" marker-mid="url(#a)" stroke="#000" stroke-width="3" transform="translate(-98.9 -63.444)" d="M253.59 306.832V194.888v-75.944"/><path d="M334.69 243.388c0 72-115.702 209.888-115.702 137.888" fill="none" stroke="#000" stroke-width="3"/><path fill="#969696" fill-opacity=".85" stroke="#969696" stroke-width="3" d="m173.267 304.672-64.279 76.604h-70l64.279-76.604zM254.69 243.388l-44.995 53.623h-100l44.995-53.623zM334.69 243.388l-64.279 76.604h-70l64.28-76.604zM263.983 327.653l-44.995 53.623h-100l44.995-53.623zM173.267 116.784l-64.279 76.604h-70l64.279-76.604zM254.69 55.5l-44.995 53.623h-100L154.69 55.5zM334.69 55.5l-64.279 76.604h-70l64.28-76.604zM263.983 139.765l-44.995 53.623h-100l44.995-53.623z"/><path fill="none" stroke="#e23d28" stroke-width="3" d="M38.988 381.276 154.69 243.388M154.69 243.388h180M334.69 243.388 218.988 381.276M218.988 381.276h-180M38.988 193.388 154.69 55.5M154.69 55.5h180M334.69 55.5 218.988 193.388M218.988 193.388h-180"/><path fill="none" marker-mid="url(#a)" stroke="#000" stroke-width="3" transform="translate(-98.9 -63.444)" d="M317.888 444.72V332.776v-75.944"/><path fill="none" marker-mid="url(#a)" stroke="#000" stroke-width="3" transform="translate(-98.9 -63.444)" d="M137.888 256.832v111.944 75.944"/><path d="M154.69 55.5c0-72 180-72 180 0" fill="none" stroke="#000" stroke-width="3"/><path fill="none" marker-mid="url(#a)" stroke="#000" stroke-width="3" transform="translate(-98.9 -63.444)" d="M433.59 118.944v111.944 75.944"/><circle cx="38.988" cy="381.276" fill="#fff" r="6" stroke="#000" stroke-width="2"/><text fill="#969696" font-family="Arial, Helvetica" font-size="20" font-weight="bold" stroke="#969696" stroke-linejoin="round" stroke-width="2" style="text-anchor:middle" transform="rotate(-50) skewX(40)" x="-447.72" y="305.834">A.G2</text><text fill="#fff" font-family="Arial, Helvetica" font-size="20" font-weight="bold" style="text-anchor:middle" transform="rotate(-50) skewX(40)" x="-447.72" y="305.834">A.G2</text><circle cx="154.69" cy="243.388" fill="#fff" r="6" stroke="#000" stroke-width="2"/><text fill="#969696" font-family="Arial, Helvetica" font-size="20" font-weight="bold" stroke="#969696" stroke-linejoin="round" stroke-width="2" style="text-anchor:middle" transform="skewX(-40)" x="408.702" y="275.52">A.G6</text><text fill="#fff" font-family="Arial, Helvetica" font-size="20" font-weight="bold" style="text-anchor:middle" transform="skewX(-40)" x="408.702" y="275.52">A.G6</text><circle cx="334.69" cy="243.388" fill="#fff" r="6" stroke="#000" stroke-width="2"/><text fill="#969696" font-family="Arial, Helvetica" font-size="20" font-weight="bold" stroke="#969696" stroke-linejoin="round" stroke-width="2" style="text-anchor:middle" transform="rotate(-50) skewX(40)" x="-367.72" y="390.099">A.G12</text><text fill="#fff" font-family="Arial, Helvetica" font-size="20" font-weight="bold" style="text-anchor:middle" transform="rotate(-50) skewX(40)" x="-367.72" y="390.099">A.G12</text><circle cx="218.988" cy="381.276" fill="#fff" r="6" stroke="#000" stroke-width="2"/><text fill="#969696" font-family="Arial, Helvetica" font-size="20" font-weight="bold" stroke="#969696" stroke-linejoin="round" stroke-width="2" style="text-anchor:middle" transform="skewX(-40)" x="488.702" y="359.785">A.G16</text><text fill="#fff" font-family="Arial, Helvetica" font-size="20" font-weight="bold" style="text-anchor:middle" transform="skewX(-40)" x="488.702" y="359.785">A.G16</text><circle cx="38.988" cy="193.388" fill="#fff" r="6" stroke="#000" stroke-width="2"/><text fill="#969696" font-family="Arial, Helvetica" font-size="20" font-weight="bold" stroke="#969696" stroke-linejoin="round" stroke-width="2" style="text-anchor:middle" transform="rotate(-50) skewX(40)" x="-202.45" y="185.062">A.G1</text><text fill="#fff" font-family="Arial, Helvetica" font-size="20" font-weight="bold" style="text-anchor:middle" transform="rotate(-50) skewX(40)" x="-202.45" y="185.062">A.G1</text><circle cx="154.69" cy="55.5" fill="#fff" r="6" stroke="#000" stroke-width="2"/><text fill="#969696" font-family="Arial, Helvetica" font-size="20" font-weight="bold" stroke="#969696" stroke-linejoin="round" stroke-width="2" style="text-anchor:middle" transform="skewX(-40)" x="251.046" y="87.632">A.G7</text><text fill="#fff" font-family="Arial, Helvetica" font-size="20" font-weight="bold" style="text-anchor:middle" transform="skewX(-40)" x="251.046" y="87.632">A.G7</text><circle cx="334.69" cy="55.5" fill="#fff" r="6" stroke="#000" stroke-width="2"/><text fill="#969696" font-family="Arial, Helvetica" font-size="20" font-weight="bold" stroke="#969696" stroke-linejoin="round" stroke-width="2" style="text-anchor:middle" transform="rotate(-50) skewX(40)" x="-122.45" y="269.327">A.G11</text><text fill="#fff" font-family="Arial, Helvetica" font-size="20" font-weight="bold" style="text-anchor:middle" transform="rotate(-50) skewX(40)" x="-122.45" y="269.327">A.G11</text><circle cx="218.988" cy="193.388" fill="#fff" r="6" stroke="#000" stroke-width="2"/><text fill="#969696" font-family="Arial, Helvetica" font-size="20" font-weight="bold" stroke="#969696" stroke-linejoin="round" stroke-width="2" style="text-anchor:middle" transform="skewX(-40)" x="331.046" y="171.897">A.G17</text><text fill="#fff" font-family="Arial, Helvetica" font-size="20" font-weight="bold" style="text-anchor:middle" transform="skewX(-40)" x="331.046" y="171.897">A.G17</text><text font-family="Arial, Helvetica" font-size="24" font-weight="bold" stroke="#fff" stroke-linejoin="round" stroke-width="2" style="text-anchor:end" x="18.988" y="198.188">5&apos;</text><text font-family="Arial, Helvetica" font-size="24" font-weight="bold" style="text-anchor:end" x="18.988" y="198.188">5&apos;</text><text font-family="Arial, Helvetica" font-size="24" font-weight="bold" stroke="#fff" stroke-linejoin="round" stroke-width="2" x="238.988" y="198.188">3&apos;</text><text font-family="Arial, Helvetica" font-size="24" font-weight="bold" x="238.988" y="198.188">3&apos;</text></svg>