<svg height="402.974" width="342.19" xmlns="http://www.w3.org/2000/svg"><defs><marker id="a" markerHeight="6.4" markerUnits="strokeWidth" markerWidth="8" orient="auto" refX="7.6" refY="4.1"><path d="m.8 1.6 6.8 2.5L.8 6.4"/></marker></defs><path d="M38.988 347.474c0 72 180 72 180 0" fill="none" stroke="#000" stroke-width="3"/><path fill="none" marker-mid="url(#a)" stroke="#000" stroke-width="3" transform="translate(-98.9 -97.246)" d="M253.59 306.832V194.888v-75.944"/><path d="M334.69 209.587c0 72-180 72-180 0" fill="none" stroke="#000" stroke-width="3"/><path fill="#969696" fill-opacity=".85" stroke="#969696" stroke-width="3" d="m173.267 270.87-64.279 76.604h-70l64.279-76.604zM254.69 209.586l-44.995 53.624h-100l44.995-53.624zM334.69 209.586l-64.279 76.605h-70l64.28-76.605zM263.983 293.851l-44.995 53.623h-100l44.995-53.623zM173.267 82.982l-64.279 76.604h-70l64.279-76.604zM254.69 21.698l-44.995 53.624h-100l44.995-53.624zM334.69 21.698l-64.279 76.605h-70l64.28-76.605zM263.983 105.963l-44.995 53.623h-100l44.995-53.623z"/><path fill="none" stroke="#e23d28" stroke-width="3" d="M38.988 347.474 154.69 209.586M154.69 209.586h180M334.69 209.586 218.988 347.474M218.988 347.474h-180M38.988 159.586 154.69 21.698M154.69 21.698h180M334.69 21.698 218.988 159.586M218.988 159.586h-180"/><path fill="none" marker-mid="url(#a)" stroke="#000" stroke-width="3" transform="translate(-98.9 -97.246)" d="M317.888 444.72V332.776v-75.944"/><path fill="none" marker-mid="url(#a)" stroke="#000" stroke-width="3" transform="translate(-98.9 -97.246)" d="M137.888 256.832v111.944 75.944"/><path fill="none" marker-mid="url(#a)" stroke="#000" stroke-width="3" transform="translate(-98.9 -97.246)" d="M433.59 118.944v111.944 75.944"/><path d="M218.988 159.587c0-72 115.702-209.889 115.702-137.889" fill="none" stroke="#000" stroke-width="3"/><circle cx="38.988" cy="347.474" fill="#fff" r="6" stroke="#000" stroke-width="2"/><text fill="#969696" font-family="Arial, Helvetica" font-size="20" font-weight="bold" stroke="#969696" stroke-linejoin="round" stroke-width="2" style="text-anchor:middle" transform="rotate(-50) skewX(40)" x="-403.596" y="284.107">A.G2</text><text fill="#fff" font-family="Arial, Helvetica" font-size="20" font-weight="bold" style="text-anchor:middle" transform="rotate(-50) skewX(40)" x="-403.596" y="284.107">A.G2</text><circle cx="154.69" cy="209.587" fill="#fff" r="6" stroke="#000" stroke-width="2"/><text fill="#969696" font-family="Arial, Helvetica" font-size="20" font-weight="bold" stroke="#969696" stroke-linejoin="round" stroke-width="2" style="text-anchor:middle" transform="skewX(-40)" x="380.34" y="241.719">A.G16</text><text fill="#fff" font-family="Arial, Helvetica" font-size="20" font-weight="bold" style="text-anchor:middle" transform="skewX(-40)" x="380.34" y="241.719">A.G16</text><circle cx="334.69" cy="209.587" fill="#fff" r="6" stroke="#000" stroke-width="2"/><text fill="#969696" font-family="Arial, Helvetica" font-size="20" font-weight="bold" stroke="#969696" stroke-linejoin="round" stroke-width="2" style="text-anchor:middle" transform="rotate(-50) skewX(40)" x="-323.596" y="368.372">A.G12</text><text fill="#fff" font-family="Arial, Helvetica" font-size="20" font-weight="bold" style="text-anchor:middle" transform="rotate(-50) skewX(40)" x="-323.596" y="368.372">A.G12</text><circle cx="218.988" cy="347.474" fill="#fff" r="6" stroke="#000" stroke-width="2"/><text fill="#969696" font-family="Arial, Helvetica" font-size="20" font-weight="bold" stroke="#969696" stroke-linejoin="round" stroke-width="2" style="text-anchor:middle" transform="skewX(-40)" x="460.34" y="325.984">A.G6</text><text fill="#fff" font-family="Arial, Helvetica" font-size="20" font-weight="bold" style="text-anchor:middle" transform="skewX(-40)" x="460.34" y="325.984">A.G6</text><circle cx="38.988" cy="159.587" fill="#fff" r="6" stroke="#000" stroke-width="2"/><text fill="#969696" font-family="Arial, Helvetica" font-size="20" font-weight="bold" stroke="#969696" stroke-linejoin="round" stroke-width="2" style="text-anchor:middle" transform="rotate(-50) skewX(40)" x="-158.325" y="163.335">A.G1</text><text fill="#fff" font-family="Arial, Helvetica" font-size="20" font-weight="bold" style="text-anchor:middle" transform="rotate(-50) skewX(40)" x="-158.325" y="163.335">A.G1</text><circle cx="154.69" cy="21.698" fill="#fff" r="6" stroke="#000" stroke-width="2"/><text fill="#969696" font-family="Arial, Helvetica" font-size="20" font-weight="bold" stroke="#969696" stroke-linejoin="round" stroke-width="2" style="text-anchor:middle" transform="skewX(-40)" x="222.683" y="53.831">A.G17</text><text fill="#fff" font-family="Arial, Helvetica" font-size="20" font-weight="bold" style="text-anchor:middle" transform="skewX(-40)" x="222.683" y="53.831">A.G17</text><circle cx="334.69" cy="21.698" fill="#fff" r="6" stroke="#000" stroke-width="2"/><text fill="#969696" font-family="Arial, Helvetica" font-size="20" font-weight="bold" stroke="#969696" stroke-linejoin="round" stroke-width="2" style="text-anchor:middle" transform="rotate(-50) skewX(40)" x="-78.325" y="247.599">A.G11</text><text fill="#fff" font-family="Arial, Helvetica" font-size="20" font-weight="bold" style="text-anchor:middle" transform="rotate(-50) skewX(40)" x="-78.325" y="247.599">A.G11</text><circle cx="218.988" cy="159.587" fill="#fff" r="6" stroke="#000" stroke-width="2"/><text fill="#969696" font-family="Arial, Helvetica" font-size="20" font-weight="bold" stroke="#969696" stroke-linejoin="round" stroke-width="2" style="text-anchor:middle" transform="skewX(-40)" x="302.683" y="138.096">A.G7</text><text fill="#fff" font-family="Arial, Helvetica" font-size="20" font-weight="bold" style="text-anchor:middle" transform="skewX(-40)" x="302.683" y="138.096">A.G7</text><text font-family="Arial, Helvetica" font-size="24" font-weight="bold" stroke="#fff" stroke-linejoin="round" stroke-width="2" style="text-anchor:end" x="18.988" y="164.386">5&apos;</text><text font-family="Arial, Helvetica" font-size="24" font-weight="bold" style="text-anchor:end" x="18.988" y="164.386">5&apos;</text><text font-family="Arial, Helvetica" font-size="24" font-weight="bold" stroke="#fff" stroke-linejoin="round" stroke-width="2" style="text-anchor:end" x="134.69" y="26.498">3&apos;</text><text font-family="Arial, Helvetica" font-size="24" font-weight="bold" style="text-anchor:end" x="134.69" y="26.498">3&apos;</text></svg>