<svg height="373.159" width="342.214" xmlns="http://www.w3.org/2000/svg"><defs><marker id="a" markerHeight="6.4" markerUnits="strokeWidth" markerWidth="8" orient="auto" refX="7.6" refY="4.1"><path d="m.8 1.6 6.8 2.5L.8 6.4"/></marker></defs><path d="M123.202 209.587c0 72-115.702 209.888-115.702 137.888" fill="none" stroke="#000" stroke-width="3"/><path fill="none" marker-mid="url(#a)" stroke="#000" stroke-width="3" transform="translate(-130.388 -97.246)" d="M253.59 118.944v111.944 75.944"/><path fill="#969696" fill-opacity=".85" stroke="#969696" stroke-width="3" d="m223.202 209.586-44.995 53.624h-100l44.995-53.624zM303.202 209.586l-64.279 76.605h-70l64.279-76.605zM232.495 293.851 187.5 347.474h-100l44.995-53.623zM141.779 270.87 77.5 347.474h-70l64.279-76.604zM223.202 21.698l-44.995 53.624h-100l44.995-53.624zM303.202 21.698l-64.279 76.605h-70l64.279-76.605zM232.495 105.963 187.5 159.586h-100l44.995-53.623zM141.779 82.982 77.5 159.586h-70l64.279-76.604z"/><path fill="none" stroke="#e23d28" stroke-width="3" d="M123.202 209.586h180M303.202 209.586 187.5 347.474M187.5 347.474H7.5M7.5 347.474l115.702-137.888M123.202 21.698h180M303.202 21.698 187.5 159.586M187.5 159.586H7.5M7.5 159.586 123.202 21.698"/><path fill="none" marker-mid="url(#a)" stroke="#000" stroke-width="3" transform="translate(-130.388 -97.246)" d="M317.888 444.72V332.776v-75.944"/><path fill="none" marker-mid="url(#a)" stroke="#000" stroke-width="3" transform="translate(-130.388 -97.246)" d="M137.888 444.72V332.776v-75.944"/><path fill="none" marker-mid="url(#a)" stroke="#000" stroke-width="3" transform="translate(-130.388 -97.246)" d="M433.59 118.944v111.944 75.944"/><path d="M187.5 159.587c0-72 115.702-209.889 115.702-137.889M7.5 159.587c23.093-130.97 156.907 318.856 180 187.888" fill="none" stroke="#000" stroke-width="3"/><circle cx="123.202" cy="209.587" fill="#fff" r="6" stroke="#000" stroke-width="2"/><text fill="#969696" font-family="Arial, Helvetica" font-size="20" font-weight="bold" stroke="#969696" stroke-linejoin="round" stroke-width="2" style="text-anchor:middle" transform="skewX(-40)" x="348.851" y="241.719">A.G2</text><text fill="#fff" font-family="Arial, Helvetica" font-size="20" font-weight="bold" style="text-anchor:middle" transform="skewX(-40)" x="348.851" y="241.719">A.G2</text><circle cx="303.202" cy="209.587" fill="#fff" r="6" stroke="#000" stroke-width="2"/><text fill="#969696" font-family="Arial, Helvetica" font-size="20" font-weight="bold" stroke="#969696" stroke-linejoin="round" stroke-width="2" style="text-anchor:middle" transform="rotate(-50) skewX(40)" x="-323.596" y="344.25">A.G17</text><text fill="#fff" font-family="Arial, Helvetica" font-size="20" font-weight="bold" style="text-anchor:middle" transform="rotate(-50) skewX(40)" x="-323.596" y="344.25">A.G17</text><circle cx="187.5" cy="347.474" fill="#fff" r="6" stroke="#000" stroke-width="2"/><text fill="#969696" font-family="Arial, Helvetica" font-size="20" font-weight="bold" stroke="#969696" stroke-linejoin="round" stroke-width="2" style="text-anchor:middle" transform="skewX(-40)" x="428.851" y="325.984">A.G11</text><text fill="#fff" font-family="Arial, Helvetica" font-size="20" font-weight="bold" style="text-anchor:middle" transform="skewX(-40)" x="428.851" y="325.984">A.G11</text><circle cx="7.5" cy="347.474" fill="#fff" r="6" stroke="#000" stroke-width="2"/><text fill="#969696" font-family="Arial, Helvetica" font-size="20" font-weight="bold" stroke="#969696" stroke-linejoin="round" stroke-width="2" style="text-anchor:middle" transform="rotate(-50) skewX(40)" x="-403.596" y="259.985">A.G6</text><text fill="#fff" font-family="Arial, Helvetica" font-size="20" font-weight="bold" style="text-anchor:middle" transform="rotate(-50) skewX(40)" x="-403.596" y="259.985">A.G6</text><circle cx="123.202" cy="21.698" fill="#fff" r="6" stroke="#000" stroke-width="2"/><text fill="#969696" font-family="Arial, Helvetica" font-size="20" font-weight="bold" stroke="#969696" stroke-linejoin="round" stroke-width="2" style="text-anchor:middle" transform="skewX(-40)" x="191.195" y="53.831">A.G1</text><text fill="#fff" font-family="Arial, Helvetica" font-size="20" font-weight="bold" style="text-anchor:middle" transform="skewX(-40)" x="191.195" y="53.831">A.G1</text><circle cx="303.202" cy="21.698" fill="#fff" r="6" stroke="#000" stroke-width="2"/><text fill="#969696" font-family="Arial, Helvetica" font-size="20" font-weight="bold" stroke="#969696" stroke-linejoin="round" stroke-width="2" style="text-anchor:middle" transform="rotate(-50) skewX(40)" x="-78.325" y="223.478">A.G16</text><text fill="#fff" font-family="Arial, Helvetica" font-size="20" font-weight="bold" style="text-anchor:middle" transform="rotate(-50) skewX(40)" x="-78.325" y="223.478">A.G16</text><circle cx="187.5" cy="159.587" fill="#fff" r="6" stroke="#000" stroke-width="2"/><text fill="#969696" font-family="Arial, Helvetica" font-size="20" font-weight="bold" stroke="#969696" stroke-linejoin="round" stroke-width="2" style="text-anchor:middle" transform="skewX(-40)" x="271.195" y="138.096">A.G12</text><text fill="#fff" font-family="Arial, Helvetica" font-size="20" font-weight="bold" style="text-anchor:middle" transform="skewX(-40)" x="271.195" y="138.096">A.G12</text><circle cx="7.5" cy="159.587" fill="#fff" r="6" stroke="#000" stroke-width="2"/><text fill="#969696" font-family="Arial, Helvetica" font-size="20" font-weight="bold" stroke="#969696" stroke-linejoin="round" stroke-width="2" style="text-anchor:middle" transform="rotate(-50) skewX(40)" x="-158.325" y="139.213">A.G7</text><text fill="#fff" font-family="Arial, Helvetica" font-size="20" font-weight="bold" style="text-anchor:middle" transform="rotate(-50) skewX(40)" x="-158.325" y="139.213">A.G7</text><text font-family="Arial, Helvetica" font-size="24" font-weight="bold" stroke="#fff" stroke-linejoin="round" stroke-width="2" style="text-anchor:end" x="103.202" y="26.498">5&apos;</text><text font-family="Arial, Helvetica" font-size="24" font-weight="bold" style="text-anchor:end" x="103.202" y="26.498">5&apos;</text><text font-family="Arial, Helvetica" font-size="24" font-weight="bold" stroke="#fff" stroke-linejoin="round" stroke-width="2" x="323.202" y="214.386">3&apos;</text><text font-family="Arial, Helvetica" font-size="24" font-weight="bold" x="323.202" y="214.386">3&apos;</text></svg>