<svg height="373.159" width="342.214" xmlns="http://www.w3.org/2000/svg"><defs><marker id="a" markerHeight="6.4" markerUnits="strokeWidth" markerWidth="8" orient="auto" refX="7.6" refY="4.1"><path d="m.8 1.6 6.8 2.5L.8 6.4"/></marker></defs><path d="M303.202 213.573c-23.094 130.968-156.907-318.857-180-187.888M123.202 213.573c0 72-115.702 209.888-115.702 137.888" fill="none" stroke="#000" stroke-width="3"/><path fill="none" marker-mid="url(#a)" stroke="#000" stroke-width="3" transform="translate(-130.388 -93.26)" d="M253.59 118.944v111.944 75.944"/><path fill="#969696" fill-opacity=".85" stroke="#969696" stroke-width="3" d="m303.202 213.573-64.279 76.604h-70l64.279-76.604zM232.495 297.838 187.5 351.46h-100l44.995-53.623zM141.779 274.856 77.5 351.461h-70l64.279-76.605zM223.202 213.573l-44.995 53.623h-100l44.995-53.623zM303.202 25.685l-64.279 76.604h-70l64.279-76.604zM232.495 109.95 187.5 163.573h-100l44.995-53.623zM141.779 86.968 77.5 163.573h-70l64.279-76.605zM223.202 25.685l-44.995 53.623h-100l44.995-53.623z"/><path fill="none" stroke="#e23d28" stroke-width="3" d="M303.202 213.573 187.5 351.46M187.5 351.46H7.5M7.5 351.46l115.702-137.887M123.202 213.573h180M303.202 25.685 187.5 163.573M187.5 163.573H7.5M7.5 163.573 123.202 25.685M123.202 25.685h180"/><path fill="none" marker-mid="url(#a)" stroke="#000" stroke-width="3" transform="translate(-130.388 -93.26)" d="M137.888 444.72V332.776v-75.944"/><path fill="none" marker-mid="url(#a)" stroke="#000" stroke-width="3" transform="translate(-130.388 -93.26)" d="M433.59 118.944v111.944 75.944"/><path fill="none" marker-mid="url(#a)" stroke="#000" stroke-width="3" transform="translate(-130.388 -93.26)" d="M317.888 256.832v111.944 75.944"/><path d="M7.5 163.573c0-72 180-72 180 0" fill="none" stroke="#000" stroke-width="3"/><circle cx="303.202" cy="213.573" fill="#fff" r="6" stroke="#000" stroke-width="2"/><text fill="#969696" font-family="Arial, Helvetica" font-size="20" font-weight="bold" stroke="#969696" stroke-linejoin="round" stroke-width="2" style="text-anchor:middle" transform="rotate(-50) skewX(40)" x="-328.799" y="346.812">A.G2</text><text fill="#fff" font-family="Arial, Helvetica" font-size="20" font-weight="bold" style="text-anchor:middle" transform="rotate(-50) skewX(40)" x="-328.799" y="346.812">A.G2</text><circle cx="187.5" cy="351.461" fill="#fff" r="6" stroke="#000" stroke-width="2"/><text fill="#969696" font-family="Arial, Helvetica" font-size="20" font-weight="bold" stroke="#969696" stroke-linejoin="round" stroke-width="2" style="text-anchor:middle" transform="skewX(-40)" x="432.196" y="329.97">A.G17</text><text fill="#fff" font-family="Arial, Helvetica" font-size="20" font-weight="bold" style="text-anchor:middle" transform="skewX(-40)" x="432.196" y="329.97">A.G17</text><circle cx="7.5" cy="351.461" fill="#fff" r="6" stroke="#000" stroke-width="2"/><text fill="#969696" font-family="Arial, Helvetica" font-size="20" font-weight="bold" stroke="#969696" stroke-linejoin="round" stroke-width="2" style="text-anchor:middle" transform="rotate(-50) skewX(40)" x="-408.799" y="262.547">A.G11</text><text fill="#fff" font-family="Arial, Helvetica" font-size="20" font-weight="bold" style="text-anchor:middle" transform="rotate(-50) skewX(40)" x="-408.799" y="262.547">A.G11</text><circle cx="123.202" cy="213.573" fill="#fff" r="6" stroke="#000" stroke-width="2"/><text fill="#969696" font-family="Arial, Helvetica" font-size="20" font-weight="bold" stroke="#969696" stroke-linejoin="round" stroke-width="2" style="text-anchor:middle" transform="skewX(-40)" x="352.196" y="245.705">A.G7</text><text fill="#fff" font-family="Arial, Helvetica" font-size="20" font-weight="bold" style="text-anchor:middle" transform="skewX(-40)" x="352.196" y="245.705">A.G7</text><circle cx="303.202" cy="25.685" fill="#fff" r="6" stroke="#000" stroke-width="2"/><text fill="#969696" font-family="Arial, Helvetica" font-size="20" font-weight="bold" stroke="#969696" stroke-linejoin="round" stroke-width="2" style="text-anchor:middle" transform="rotate(-50) skewX(40)" x="-83.529" y="226.04">A.G1</text><text fill="#fff" font-family="Arial, Helvetica" font-size="20" font-weight="bold" style="text-anchor:middle" transform="rotate(-50) skewX(40)" x="-83.529" y="226.04">A.G1</text><circle cx="187.5" cy="163.573" fill="#fff" r="6" stroke="#000" stroke-width="2"/><text fill="#969696" font-family="Arial, Helvetica" font-size="20" font-weight="bold" stroke="#969696" stroke-linejoin="round" stroke-width="2" style="text-anchor:middle" transform="skewX(-40)" x="274.539" y="142.082">A.G16</text><text fill="#fff" font-family="Arial, Helvetica" font-size="20" font-weight="bold" style="text-anchor:middle" transform="skewX(-40)" x="274.539" y="142.082">A.G16</text><circle cx="7.5" cy="163.573" fill="#fff" r="6" stroke="#000" stroke-width="2"/><text fill="#969696" font-family="Arial, Helvetica" font-size="20" font-weight="bold" stroke="#969696" stroke-linejoin="round" stroke-width="2" style="text-anchor:middle" transform="rotate(-50) skewX(40)" x="-163.529" y="141.775">A.G12</text><text fill="#fff" font-family="Arial, Helvetica" font-size="20" font-weight="bold" style="text-anchor:middle" transform="rotate(-50) skewX(40)" x="-163.529" y="141.775">A.G12</text><circle cx="123.202" cy="25.685" fill="#fff" r="6" stroke="#000" stroke-width="2"/><text fill="#969696" font-family="Arial, Helvetica" font-size="20" font-weight="bold" stroke="#969696" stroke-linejoin="round" stroke-width="2" style="text-anchor:middle" transform="skewX(-40)" x="194.539" y="57.817">A.G6</text><text fill="#fff" font-family="Arial, Helvetica" font-size="20" font-weight="bold" style="text-anchor:middle" transform="skewX(-40)" x="194.539" y="57.817">A.G6</text><text font-family="Arial, Helvetica" font-size="24" font-weight="bold" stroke="#fff" stroke-linejoin="round" stroke-width="2" x="323.202" y="30.485">5&apos;</text><text font-family="Arial, Helvetica" font-size="24" font-weight="bold" x="323.202" y="30.485">5&apos;</text><text font-family="Arial, Helvetica" font-size="24" font-weight="bold" stroke="#fff" stroke-linejoin="round" stroke-width="2" x="207.5" y="356.261">3&apos;</text><text font-family="Arial, Helvetica" font-size="24" font-weight="bold" x="207.5" y="356.261">3&apos;</text></svg>